<?xml version="1.0" encoding="utf-8"?>
<svg version="1.1" xmlns:xlink="http://www.w3.org/1999/xlink" width="19px" height="36px" xmlns="http://www.w3.org/2000/svg">
  <g transform="matrix(1 0 0 1 -194 -177 )">
    <path d="M 18.6735395189003 2.16432865731463  C 18.8911798396335 2.40480961923847  19 2.6813627254509  19 2.9939879759519  C 19 3.3066132264529  18.8911798396335 3.58316633266533  18.6735395189003 3.82364729458918  L 5.84364261168385 18  L 18.6735395189003 32.1763527054108  C 18.8911798396335 32.4168336673347  19 32.6933867735471  19 33.0060120240481  C 19 33.3186372745491  18.8911798396335 33.5951903807615  18.6735395189003 33.8356713426854  L 17.0412371134021 35.6392785571142  C 16.823596792669 35.8797595190381  16.5733104238259 36  16.2903780068729 36  C 16.0074455899198 36  15.7571592210767 35.8797595190381  15.5395189003436 35.6392785571142  L 0.326460481099656 18.8296593186373  C 0.108820160366552 18.5891783567134  0 18.312625250501  0 18  C 0 17.687374749499  0.108820160366552 17.4108216432866  0.326460481099656 17.1703406813627  L 15.5395189003436 0.360721442885772  C 15.7571592210767 0.120240480961923  16.0074455899198 0  16.2903780068729 0  C 16.5733104238259 0  16.823596792669 0.120240480961923  17.0412371134021 0.360721442885772  L 18.6735395189003 2.16432865731463  Z " fill-rule="nonzero" fill="#7f7f7f" stroke="none" transform="matrix(1 0 0 1 194 177 )" />
  </g>
</svg>