<?xml version="1.0" encoding="utf-8"?>
<svg version="1.1" xmlns:xlink="http://www.w3.org/1999/xlink" width="18px" height="34px" xmlns="http://www.w3.org/2000/svg">
  <g transform="matrix(1 0 0 1 -7 -11 )">
    <path d="M 17.6907216494845 2.0440881763527  C 17.8969072164948 2.27120908483634  18 2.53239812959251  18 2.82765531062124  C 18 3.12291249164997  17.8969072164948 3.38410153640614  17.6907216494845 3.61122244488978  L 5.5360824742268 17  L 17.6907216494845 30.3887775551102  C 17.8969072164948 30.6158984635939  18 30.87708750835  18 31.1723446893788  C 18 31.4676018704075  17.8969072164948 31.7287909151637  17.6907216494845 31.9559118236473  L 16.1443298969072 33.6593186372746  C 15.9381443298969 33.8864395457582  15.7010309278351 34  15.4329896907216 34  C 15.1649484536083 34  14.9278350515464 33.8864395457582  14.7216494845361 33.6593186372746  L 0.309278350515464 17.7835671342685  C 0.103092783505155 17.5564462257849  0 17.2952571810287  0 17  C 0 16.7047428189713  0.103092783505155 16.4435537742151  0.309278350515464 16.2164328657315  L 14.7216494845361 0.340681362725451  C 14.9278350515464 0.113560454241816  15.1649484536083 0  15.4329896907216 0  C 15.7010309278351 0  15.9381443298969 0.113560454241816  16.1443298969072 0.340681362725451  L 17.6907216494845 2.0440881763527  Z " fill-rule="nonzero" fill="#555555" stroke="none" transform="matrix(1 0 0 1 7 11 )" />
  </g>
</svg>