<?xml version="1.0" encoding="utf-8"?>
<svg version="1.1" xmlns:xlink="http://www.w3.org/1999/xlink" width="6px" height="11px" xmlns="http://www.w3.org/2000/svg">
  <defs>
    <mask fill="white" id="clip41">
      <path d="M 5.99385263157895 5.5  C 5.99385263157895 8.53090526315791  4.65389473684211 10.9887298245614  3 10.9887298245614  C 1.34610526315789 10.9887298245614  0.00614736842105272 8.53090526315791  0.00614736842105272 5.5  C 0.00614736842105272 2.4690947368421  1.34610526315789 0.0112701754385967  3 0.0112701754385967  C 4.65389473684211 0.0112701754385967  5.99385263157895 2.4690947368421  5.99385263157895 5.5  Z M 3.92362105263158 3.31883508771929  L 2.99797894736843 5.0170807017544  L 2.07166315789474 3.31883508771929  C 1.99890526315789 3.18544561403508  1.88033684210526 3.18544561403508  1.8069052631579 3.31883508771929  C 1.73414736842106 3.45222456140351  1.73414736842106 3.6696  1.8069052631579 3.80422456140352  L 2.73322105263158 5.50247017543859  L 1.8069052631579 7.20071578947369  C 1.73414736842106 7.33410526315788  1.73414736842106 7.55148070175437  1.8069052631579 7.68610526315788  C 1.87966315789473 7.8194947368421  1.99823157894736 7.8194947368421  2.07166315789474 7.68610526315788  L 2.99797894736843 5.98785964912281  L 3.9242947368421 7.68610526315788  C 3.99705263157895 7.8194947368421  4.11562105263158 7.8194947368421  4.18905263157895 7.68610526315788  C 4.26248421052632 7.55271578947369  4.26181052631578 7.3353403508772  4.18905263157895 7.20071578947369  L 3.26206315789474 5.50247017543859  L 4.18837894736841 3.80422456140352  C 4.26113684210526 3.6708350877193  4.26113684210526 3.45345964912281  4.18837894736841 3.31883508771929  C 4.11562105263158 3.18544561403508  3.99705263157895 3.18544561403508  3.92362105263158 3.31883508771929  Z " fill-rule="evenodd" />
    </mask>
  </defs>
  <g transform="matrix(1 0 0 1 -246 -24 )">
    <path d="M 5.99385263157895 5.5  C 5.99385263157895 8.53090526315791  4.65389473684211 10.9887298245614  3 10.9887298245614  C 1.34610526315789 10.9887298245614  0.00614736842105272 8.53090526315791  0.00614736842105272 5.5  C 0.00614736842105272 2.4690947368421  1.34610526315789 0.0112701754385967  3 0.0112701754385967  C 4.65389473684211 0.0112701754385967  5.99385263157895 2.4690947368421  5.99385263157895 5.5  Z M 3.92362105263158 3.31883508771929  L 2.99797894736843 5.0170807017544  L 2.07166315789474 3.31883508771929  C 1.99890526315789 3.18544561403508  1.88033684210526 3.18544561403508  1.8069052631579 3.31883508771929  C 1.73414736842106 3.45222456140351  1.73414736842106 3.6696  1.8069052631579 3.80422456140352  L 2.73322105263158 5.50247017543859  L 1.8069052631579 7.20071578947369  C 1.73414736842106 7.33410526315788  1.73414736842106 7.55148070175437  1.8069052631579 7.68610526315788  C 1.87966315789473 7.8194947368421  1.99823157894736 7.8194947368421  2.07166315789474 7.68610526315788  L 2.99797894736843 5.98785964912281  L 3.9242947368421 7.68610526315788  C 3.99705263157895 7.8194947368421  4.11562105263158 7.8194947368421  4.18905263157895 7.68610526315788  C 4.26248421052632 7.55271578947369  4.26181052631578 7.3353403508772  4.18905263157895 7.20071578947369  L 3.26206315789474 5.50247017543859  L 4.18837894736841 3.80422456140352  C 4.26113684210526 3.6708350877193  4.26113684210526 3.45345964912281  4.18837894736841 3.31883508771929  C 4.11562105263158 3.18544561403508  3.99705263157895 3.18544561403508  3.92362105263158 3.31883508771929  Z " fill-rule="nonzero" fill="#ffffff" stroke="none" transform="matrix(1 0 0 1 246 24 )" />
    <path d="M 5.99385263157895 5.5  C 5.99385263157895 8.53090526315791  4.65389473684211 10.9887298245614  3 10.9887298245614  C 1.34610526315789 10.9887298245614  0.00614736842105272 8.53090526315791  0.00614736842105272 5.5  C 0.00614736842105272 2.4690947368421  1.34610526315789 0.0112701754385967  3 0.0112701754385967  C 4.65389473684211 0.0112701754385967  5.99385263157895 2.4690947368421  5.99385263157895 5.5  Z " stroke-width="2" stroke="#aaaaaa" fill="none" transform="matrix(1 0 0 1 246 24 )" mask="url(#clip41)" />
    <path d="M 3.92362105263158 3.31883508771929  L 2.99797894736843 5.0170807017544  L 2.07166315789474 3.31883508771929  C 1.99890526315789 3.18544561403508  1.88033684210526 3.18544561403508  1.8069052631579 3.31883508771929  C 1.73414736842106 3.45222456140351  1.73414736842106 3.6696  1.8069052631579 3.80422456140352  L 2.73322105263158 5.50247017543859  L 1.8069052631579 7.20071578947369  C 1.73414736842106 7.33410526315788  1.73414736842106 7.55148070175437  1.8069052631579 7.68610526315788  C 1.87966315789473 7.8194947368421  1.99823157894736 7.8194947368421  2.07166315789474 7.68610526315788  L 2.99797894736843 5.98785964912281  L 3.9242947368421 7.68610526315788  C 3.99705263157895 7.8194947368421  4.11562105263158 7.8194947368421  4.18905263157895 7.68610526315788  C 4.26248421052632 7.55271578947369  4.26181052631578 7.3353403508772  4.18905263157895 7.20071578947369  L 3.26206315789474 5.50247017543859  L 4.18837894736841 3.80422456140352  C 4.26113684210526 3.6708350877193  4.26113684210526 3.45345964912281  4.18837894736841 3.31883508771929  C 4.11562105263158 3.18544561403508  3.99705263157895 3.18544561403508  3.92362105263158 3.31883508771929  Z " stroke-width="2" stroke="#aaaaaa" fill="none" transform="matrix(1 0 0 1 246 24 )" mask="url(#clip41)" />
  </g>
</svg>