<?xml version="1.0" encoding="utf-8"?>
<svg version="1.1" xmlns:xlink="http://www.w3.org/1999/xlink" width="8px" height="11px" xmlns="http://www.w3.org/2000/svg">
  <defs>
    <mask fill="white" id="clip40">
      <path d="M 7.99180350877193 5.5  C 7.99180350877193 8.53090526315791  6.20519298245615 10.9887298245614  4 10.9887298245614  C 1.79480701754386 10.9887298245614  0.00819649122807029 8.53090526315791  0.00819649122807029 5.5  C 0.00819649122807029 2.4690947368421  1.79480701754386 0.0112701754385967  4 0.0112701754385967  C 6.20519298245615 0.0112701754385967  7.99180350877193 2.4690947368421  7.99180350877193 5.5  Z M 5.23149473684211 3.31883508771929  L 3.9973052631579 5.0170807017544  L 2.76221754385965 3.31883508771929  C 2.66520701754385 3.18544561403508  2.50711578947368 3.18544561403508  2.40920701754387 3.31883508771929  C 2.31219649122807 3.45222456140351  2.31219649122807 3.6696  2.40920701754387 3.80422456140352  L 3.64429473684211 5.50247017543859  L 2.40920701754387 7.20071578947369  C 2.31219649122807 7.33410526315788  2.31219649122807 7.55148070175437  2.40920701754387 7.68610526315788  C 2.50621754385964 7.8194947368421  2.66430877192982 7.8194947368421  2.76221754385965 7.68610526315788  L 3.9973052631579 5.98785964912281  L 5.23239298245614 7.68610526315788  C 5.32940350877193 7.8194947368421  5.48749473684211 7.8194947368421  5.58540350877194 7.68610526315788  C 5.68331228070176 7.55271578947369  5.68241403508771 7.3353403508772  5.58540350877194 7.20071578947369  L 4.34941754385965 5.50247017543859  L 5.58450526315788 3.80422456140352  C 5.68151578947368 3.6708350877193  5.68151578947368 3.45345964912281  5.58450526315788 3.31883508771929  C 5.48749473684211 3.18544561403508  5.32940350877193 3.18544561403508  5.23149473684211 3.31883508771929  Z " fill-rule="evenodd" />
    </mask>
  </defs>
  <g transform="matrix(1 0 0 1 -651 -24 )">
    <path d="M 7.99180350877193 5.5  C 7.99180350877193 8.53090526315791  6.20519298245615 10.9887298245614  4 10.9887298245614  C 1.79480701754386 10.9887298245614  0.00819649122807029 8.53090526315791  0.00819649122807029 5.5  C 0.00819649122807029 2.4690947368421  1.79480701754386 0.0112701754385967  4 0.0112701754385967  C 6.20519298245615 0.0112701754385967  7.99180350877193 2.4690947368421  7.99180350877193 5.5  Z M 5.23149473684211 3.31883508771929  L 3.9973052631579 5.0170807017544  L 2.76221754385965 3.31883508771929  C 2.66520701754385 3.18544561403508  2.50711578947368 3.18544561403508  2.40920701754387 3.31883508771929  C 2.31219649122807 3.45222456140351  2.31219649122807 3.6696  2.40920701754387 3.80422456140352  L 3.64429473684211 5.50247017543859  L 2.40920701754387 7.20071578947369  C 2.31219649122807 7.33410526315788  2.31219649122807 7.55148070175437  2.40920701754387 7.68610526315788  C 2.50621754385964 7.8194947368421  2.66430877192982 7.8194947368421  2.76221754385965 7.68610526315788  L 3.9973052631579 5.98785964912281  L 5.23239298245614 7.68610526315788  C 5.32940350877193 7.8194947368421  5.48749473684211 7.8194947368421  5.58540350877194 7.68610526315788  C 5.68331228070176 7.55271578947369  5.68241403508771 7.3353403508772  5.58540350877194 7.20071578947369  L 4.34941754385965 5.50247017543859  L 5.58450526315788 3.80422456140352  C 5.68151578947368 3.6708350877193  5.68151578947368 3.45345964912281  5.58450526315788 3.31883508771929  C 5.48749473684211 3.18544561403508  5.32940350877193 3.18544561403508  5.23149473684211 3.31883508771929  Z " fill-rule="nonzero" fill="#ffffff" stroke="none" transform="matrix(1 0 0 1 651 24 )" />
    <path d="M 7.99180350877193 5.5  C 7.99180350877193 8.53090526315791  6.20519298245615 10.9887298245614  4 10.9887298245614  C 1.79480701754386 10.9887298245614  0.00819649122807029 8.53090526315791  0.00819649122807029 5.5  C 0.00819649122807029 2.4690947368421  1.79480701754386 0.0112701754385967  4 0.0112701754385967  C 6.20519298245615 0.0112701754385967  7.99180350877193 2.4690947368421  7.99180350877193 5.5  Z " stroke-width="2" stroke="#aaaaaa" fill="none" transform="matrix(1 0 0 1 651 24 )" mask="url(#clip40)" />
    <path d="M 5.23149473684211 3.31883508771929  L 3.9973052631579 5.0170807017544  L 2.76221754385965 3.31883508771929  C 2.66520701754385 3.18544561403508  2.50711578947368 3.18544561403508  2.40920701754387 3.31883508771929  C 2.31219649122807 3.45222456140351  2.31219649122807 3.6696  2.40920701754387 3.80422456140352  L 3.64429473684211 5.50247017543859  L 2.40920701754387 7.20071578947369  C 2.31219649122807 7.33410526315788  2.31219649122807 7.55148070175437  2.40920701754387 7.68610526315788  C 2.50621754385964 7.8194947368421  2.66430877192982 7.8194947368421  2.76221754385965 7.68610526315788  L 3.9973052631579 5.98785964912281  L 5.23239298245614 7.68610526315788  C 5.32940350877193 7.8194947368421  5.48749473684211 7.8194947368421  5.58540350877194 7.68610526315788  C 5.68331228070176 7.55271578947369  5.68241403508771 7.3353403508772  5.58540350877194 7.20071578947369  L 4.34941754385965 5.50247017543859  L 5.58450526315788 3.80422456140352  C 5.68151578947368 3.6708350877193  5.68151578947368 3.45345964912281  5.58450526315788 3.31883508771929  C 5.48749473684211 3.18544561403508  5.32940350877193 3.18544561403508  5.23149473684211 3.31883508771929  Z " stroke-width="2" stroke="#aaaaaa" fill="none" transform="matrix(1 0 0 1 651 24 )" mask="url(#clip40)" />
  </g>
</svg>