<?xml version="1.0" encoding="utf-8"?>
<svg version="1.1" xmlns:xlink="http://www.w3.org/1999/xlink" width="35px" height="22px" xmlns="http://www.w3.org/2000/svg">
  <g transform="matrix(1 0 0 1 -1095 -1334 )">
    <path d="M 34.6492985971944 10.111801242236  C 34.8830995323981 10.263630089717  35 10.4382332643202  35 10.6356107660455  C 35 10.8329882677709  34.8830995323981 11.0075914423741  34.6492985971944 11.1594202898551  L 18.3066132264529 21.7722567287785  C 18.0728122912492 21.9240855762595  17.8039412157649 22  17.5 22  C 17.1960587842351 22  16.9271877087508 21.9240855762595  16.6933867735471 21.7722567287785  L 0.350701402805611 11.1594202898551  C 0.116900467601871 11.0075914423741  0 10.8329882677709  0 10.6356107660455  C 0 10.4382332643202  0.116900467601871 10.263630089717  0.350701402805611 10.111801242236  L 2.10420841683367 8.97308488612836  C 2.33800935203741 8.82125603864734  2.60688042752171 8.74534161490683  2.91082164328657 8.74534161490683  C 3.21476285905144 8.74534161490683  3.48363393453574 8.82125603864734  3.71743486973948 8.97308488612836  L 17.5 17.9233954451346  L 31.2825651302605 8.97308488612836  C 31.5163660654643 8.82125603864734  31.7852371409486 8.74534161490683  32.0891783567134 8.74534161490683  C 32.3931195724783 8.74534161490683  32.6619906479626 8.82125603864734  32.8957915831663 8.97308488612836  L 34.6492985971944 10.111801242236  Z M 34.6492985971944 1.36645962732919  C 34.8830995323981 1.51828847481021  35 1.69289164941339  35 1.89026915113872  C 35 2.08764665286404  34.8830995323981 2.26224982746722  34.6492985971944 2.41407867494824  L 18.3066132264529 13.0269151138716  C 18.0728122912492 13.1787439613527  17.8039412157649 13.2546583850932  17.5 13.2546583850932  C 17.1960587842351 13.2546583850932  16.9271877087508 13.1787439613527  16.6933867735471 13.0269151138716  L 0.350701402805611 2.41407867494824  C 0.116900467601871 2.26224982746722  0 2.08764665286404  0 1.89026915113872  C 0 1.69289164941339  0.116900467601871 1.51828847481021  0.350701402805611 1.36645962732919  L 2.10420841683367 0.227743271221532  C 2.33800935203741 0.0759144237405089  2.60688042752171 0  2.91082164328657 0  C 3.21476285905144 0  3.48363393453574 0.0759144237405089  3.71743486973948 0.227743271221532  L 17.5 9.17805383022774  L 31.2825651302605 0.227743271221532  C 31.5163660654643 0.0759144237405089  31.7852371409486 0  32.0891783567134 0  C 32.3931195724783 0  32.6619906479626 0.0759144237405089  32.8957915831663 0.227743271221532  L 34.6492985971944 1.36645962732919  Z " fill-rule="nonzero" fill="#555555" stroke="none" transform="matrix(1 0 0 1 1095 1334 )" />
  </g>
</svg>