<?xml version="1.0" encoding="utf-8"?>
<svg version="1.1" xmlns:xlink="http://www.w3.org/1999/xlink" width="32px" height="21px" xmlns="http://www.w3.org/2000/svg">
  <g transform="matrix(1 0 0 1 -928 -4145 )">
    <path d="M 18.9482401656315 10.0160320641283  C 19.1690821256039 10.1563126252505  19.2795031055901 10.3176352705411  19.2795031055901 10.5  C 19.2795031055901 10.6823647294589  19.1690821256039 10.8436873747495  18.9482401656315 10.9839679358717  L 3.51138716356108 20.7895791583166  C 3.29054520358868 20.9298597194389  3.03657694962043 21  2.74948240165631 21  C 2.4623878536922 21  2.20841959972395 20.9298597194389  1.98757763975155 20.7895791583166  L 0.331262939958592 19.7374749498998  C 0.110420979986197 19.5971943887776  0 19.435871743487  0 19.2535070140281  C 0 19.0711422845691  0.110420979986197 18.9098196392786  0.331262939958592 18.7695390781563  L 13.3498964803313 10.5  L 0.331262939958592 2.23046092184369  C 0.110420979986197 2.09018036072144  0 1.92885771543086  0 1.74649298597194  C 0 1.56412825651302  0.110420979986197 1.40280561122244  0.331262939958592 1.2625250501002  L 1.98757763975155 0.210420841683367  C 2.20841959972395 0.0701402805611215  2.4623878536922 0  2.74948240165631 0  C 3.03657694962043 0  3.29054520358868 0.0701402805611215  3.51138716356108 0.210420841683367  L 18.9482401656315 10.0160320641283  Z M 31.6687370600414 10.0160320641283  C 31.8895790200138 10.1563126252505  32 10.3176352705411  32 10.5  C 32 10.6823647294589  31.8895790200138 10.8436873747495  31.6687370600414 10.9839679358717  L 16.231884057971 20.7895791583166  C 16.0110420979986 20.9298597194389  15.7570738440304 21  15.4699792960663 21  C 15.1828847481021 21  14.9289164941339 20.9298597194389  14.7080745341615 20.7895791583166  L 13.0517598343685 19.7374749498998  C 12.8309178743961 19.5971943887776  12.7204968944099 19.435871743487  12.7204968944099 19.2535070140281  C 12.7204968944099 19.0711422845691  12.8309178743961 18.9098196392786  13.0517598343685 18.7695390781563  L 26.0703933747412 10.5  L 13.0517598343685 2.23046092184369  C 12.8309178743961 2.09018036072144  12.7204968944099 1.92885771543086  12.7204968944099 1.74649298597194  C 12.7204968944099 1.56412825651302  12.8309178743961 1.40280561122244  13.0517598343685 1.2625250501002  L 14.7080745341615 0.210420841683367  C 14.9289164941339 0.0701402805611215  15.1828847481021 0  15.4699792960663 0  C 15.7570738440304 0  16.0110420979986 0.0701402805611215  16.231884057971 0.210420841683367  L 31.6687370600414 10.0160320641283  Z " fill-rule="nonzero" fill="#aaaaaa" stroke="none" transform="matrix(1 0 0 1 928 4145 )" />
  </g>
</svg>