<?xml version="1.0" encoding="utf-8"?>
<svg version="1.1" xmlns:xlink="http://www.w3.org/1999/xlink" width="111px" height="121px" xmlns="http://www.w3.org/2000/svg">
  <g transform="matrix(1 0 0 1 -577 -386 )">
    <path d="M 578 390  A 3 3 0 0 1 581 387 L 684 387  A 3 3 0 0 1 687 390 L 687 503  A 3 3 0 0 1 684 506 L 581 506  A 3 3 0 0 1 578 503 L 578 390  Z " fill-rule="nonzero" fill="#000000" stroke="none" fill-opacity="0.0196078431372549" />
    <path d="M 577.5 390  A 3.5 3.5 0 0 1 581 386.5 L 684 386.5  A 3.5 3.5 0 0 1 687.5 390 L 687.5 503  A 3.5 3.5 0 0 1 684 506.5 L 581 506.5  A 3.5 3.5 0 0 1 577.5 503 L 577.5 390  Z " stroke-width="1" stroke-dasharray="9,4" stroke="#d9d9d9" fill="none" stroke-dashoffset="0.5" />
  </g>
</svg>