<?xml version="1.0" encoding="utf-8"?>
<svg version="1.1" xmlns:xlink="http://www.w3.org/1999/xlink" width="121px" height="121px" xmlns="http://www.w3.org/2000/svg">
  <g transform="matrix(1 0 0 1 -950 -386 )">
    <path d="M 951 390  A 3 3 0 0 1 954 387 L 1067 387  A 3 3 0 0 1 1070 390 L 1070 503  A 3 3 0 0 1 1067 506 L 954 506  A 3 3 0 0 1 951 503 L 951 390  Z " fill-rule="nonzero" fill="#ffffff" stroke="none" />
    <path d="M 950.5 390  A 3.5 3.5 0 0 1 954 386.5 L 1067 386.5  A 3.5 3.5 0 0 1 1070.5 390 L 1070.5 503  A 3.5 3.5 0 0 1 1067 506.5 L 954 506.5  A 3.5 3.5 0 0 1 950.5 503 L 950.5 390  Z " stroke-width="1" stroke-dasharray="9,4" stroke="#d9d9d9" fill="none" stroke-dashoffset="0.5" />
  </g>
</svg>