<?xml version="1.0" encoding="utf-8"?>
<svg version="1.1" xmlns:xlink="http://www.w3.org/1999/xlink" width="12px" height="12px" viewBox="159 2849.5  12 12" xmlns="http://www.w3.org/2000/svg">
  <path d="M 165 2849.5  C 168.36 2849.5  171 2852.14  171 2855.5  C 171 2858.86  168.36 2861.5  165 2861.5  C 161.64 2861.5  159 2858.86  159 2855.5  C 159 2852.14  161.64 2849.5  165 2849.5  Z " fill-rule="nonzero" fill="#ffffff" stroke="none" />
  <path d="M 165 2850  C 168.08 2850  170.5 2852.42  170.5 2855.5  C 170.5 2858.58  168.08 2861  165 2861  C 161.92 2861  159.5 2858.58  159.5 2855.5  C 159.5 2852.42  161.92 2850  165 2850  Z " stroke-width="1" stroke="#797979" fill="none" />
  <path d="M 165 2858.5  C 163.32 2858.5  162 2857.18  162 2855.5  C 162 2853.82  163.32 2852.5  165 2852.5  C 166.68 2852.5  168 2853.82  168 2855.5  C 168 2857.18  166.68 2858.5  165 2858.5  " fill-rule="nonzero" fill="#797979" stroke="none" />
</svg>