<?xml version="1.0" encoding="utf-8"?>
<svg version="1.1" xmlns:xlink="http://www.w3.org/1999/xlink" width="12px" height="12px" viewBox="284 2849.5  12 12" xmlns="http://www.w3.org/2000/svg">
  <path d="M 290 2849.5  C 293.36 2849.5  296 2852.14  296 2855.5  C 296 2858.86  293.36 2861.5  290 2861.5  C 286.64 2861.5  284 2858.86  284 2855.5  C 284 2852.14  286.64 2849.5  290 2849.5  Z " fill-rule="nonzero" fill="#f0f0f0" stroke="none" />
  <path d="M 290 2850  C 293.08 2850  295.5 2852.42  295.5 2855.5  C 295.5 2858.58  293.08 2861  290 2861  C 286.92 2861  284.5 2858.58  284.5 2855.5  C 284.5 2852.42  286.92 2850  290 2850  Z " stroke-width="1" stroke="#797979" fill="none" />
  <path d="M 290 2858.5  C 288.32 2858.5  287 2857.18  287 2855.5  C 287 2853.82  288.32 2852.5  290 2852.5  C 291.68 2852.5  293 2853.82  293 2855.5  C 293 2857.18  291.68 2858.5  290 2858.5  " fill-rule="nonzero" fill="#797979" stroke="none" />
</svg>