<?xml version="1.0" encoding="utf-8"?>
<svg version="1.1" xmlns:xlink="http://www.w3.org/1999/xlink" width="41px" height="33px" xmlns="http://www.w3.org/2000/svg">
  <g transform="matrix(1 0 0 1 -883 -8 )">
    <path d="M 40.03367003367 24.6666666666667  C 40.6778900112233 25.1851851851852  41 25.8148148148148  41 26.5555555555556  C 41 27.2962962962963  40.6778900112233 27.9259259259259  40.03367003367 28.4444444444444  L 35.3400673400673 32.2222222222222  C 34.695847362514 32.7407407407407  33.9135802469136 33  32.993265993266 33  C 32.0729517396184 33  31.290684624018 32.7407407407407  30.6464646464646 32.2222222222222  L 20.5 24.0555555555556  L 10.3535353535354 32.2222222222222  C 9.70931537598204 32.7407407407407  8.92704826038159 33  8.00673400673401 33  C 7.08641975308642 33  6.30415263748597 32.7407407407407  5.65993265993266 32.2222222222222  L 0.966329966329966 28.4444444444444  C 0.322109988776656 27.9259259259259  0 27.2962962962963  0 26.5555555555556  C 0 25.8148148148148  0.322109988776656 25.1851851851852  0.966329966329966 24.6666666666667  L 11.1127946127946 16.5  L 0.966329966329966 8.33333333333333  C 0.322109988776656 7.81481481481481  0 7.18518518518519  0 6.44444444444444  C 0 5.7037037037037  0.322109988776656 5.07407407407407  0.966329966329966 4.55555555555556  L 5.65993265993266 0.777777777777778  C 6.30415263748597 0.259259259259258  7.08641975308642 0  8.00673400673401 0  C 8.92704826038159 0  9.70931537598204 0.259259259259258  10.3535353535354 0.777777777777778  L 20.5 8.94444444444445  L 30.6464646464646 0.777777777777778  C 31.290684624018 0.259259259259258  32.0729517396184 0  32.993265993266 0  C 33.9135802469136 0  34.695847362514 0.259259259259258  35.3400673400673 0.777777777777778  L 40.03367003367 4.55555555555556  C 40.6778900112233 5.07407407407407  41 5.7037037037037  41 6.44444444444444  C 41 7.18518518518519  40.6778900112233 7.81481481481481  40.03367003367 8.33333333333333  L 29.8872053872054 16.5  L 40.03367003367 24.6666666666667  Z " fill-rule="nonzero" fill="#7f7f7f" stroke="none" transform="matrix(1 0 0 1 883 8 )" />
  </g>
</svg>