<?xml version="1.0" encoding="utf-8"?>
<svg version="1.1" xmlns:xlink="http://www.w3.org/1999/xlink" width="12px" height="12px" viewBox="146 242.5  12 12" xmlns="http://www.w3.org/2000/svg">
  <path d="M 152 242.5  C 155.36 242.5  158 245.14  158 248.5  C 158 251.86  155.36 254.5  152 254.5  C 148.64 254.5  146 251.86  146 248.5  C 146 245.14  148.64 242.5  152 242.5  Z " fill-rule="nonzero" fill="#f0f0f0" stroke="none" />
  <path d="M 152 243  C 155.08 243  157.5 245.42  157.5 248.5  C 157.5 251.58  155.08 254  152 254  C 148.92 254  146.5 251.58  146.5 248.5  C 146.5 245.42  148.92 243  152 243  Z " stroke-width="1" stroke="#797979" fill="none" />
  <path d="M 152 251.5  C 150.32 251.5  149 250.18  149 248.5  C 149 246.82  150.32 245.5  152 245.5  C 153.68 245.5  155 246.82  155 248.5  C 155 250.18  153.68 251.5  152 251.5  " fill-rule="nonzero" fill="#797979" stroke="none" />
</svg>