<?xml version="1.0" encoding="utf-8"?>
<svg version="1.1" xmlns:xlink="http://www.w3.org/1999/xlink" width="12px" height="12px" viewBox="221 243.5  12 12" xmlns="http://www.w3.org/2000/svg">
  <path d="M 227 243.5  C 230.36 243.5  233 246.14  233 249.5  C 233 252.86  230.36 255.5  227 255.5  C 223.64 255.5  221 252.86  221 249.5  C 221 246.14  223.64 243.5  227 243.5  Z " fill-rule="nonzero" fill="#ffffff" stroke="none" />
  <path d="M 227 244  C 230.08 244  232.5 246.42  232.5 249.5  C 232.5 252.58  230.08 255  227 255  C 223.92 255  221.5 252.58  221.5 249.5  C 221.5 246.42  223.92 244  227 244  Z " stroke-width="1" stroke="#797979" fill="none" />
  <path d="M 227 252.5  C 225.32 252.5  224 251.18  224 249.5  C 224 247.82  225.32 246.5  227 246.5  C 228.68 246.5  230 247.82  230 249.5  C 230 251.18  228.68 252.5  227 252.5  " fill-rule="nonzero" fill="#797979" stroke="none" />
</svg>