<?xml version="1.0" encoding="utf-8"?>
<svg version="1.1" xmlns:xlink="http://www.w3.org/1999/xlink" width="35px" height="29px" xmlns="http://www.w3.org/2000/svg">
  <g transform="matrix(1 0 0 1 -480 -6 )">
    <path d="M 34.1750841750842 21.6767676767677  C 34.7250280583614 22.1324354657688  35 22.685746352413  35 23.3367003367003  C 35 23.9876543209877  34.7250280583614 24.5409652076319  34.1750841750842 24.996632996633  L 30.1683501683502 28.3164983164983  C 29.618406285073 28.7721661054994  28.9506172839506 29  28.1649831649832 29  C 27.3793490460157 29  26.7115600448934 28.7721661054994  26.1616161616162 28.3164983164983  L 17.5 21.1397306397306  L 8.83838383838384 28.3164983164983  C 8.28843995510662 28.7721661054994  7.62065095398429 29  6.83501683501683 29  C 6.04938271604938 29  5.38159371492705 28.7721661054994  4.83164983164983 28.3164983164983  L 0.824915824915825 24.996632996633  C 0.274971941638609 24.5409652076319  0 23.9876543209877  0 23.3367003367003  C 0 22.685746352413  0.274971941638609 22.1324354657688  0.824915824915825 21.6767676767677  L 9.48653198653199 14.5  L 0.824915824915825 7.32323232323232  C 0.274971941638609 6.8675645342312  0 6.31425364758698  0 5.66329966329966  C 0 5.01234567901235  0.274971941638609 4.45903479236812  0.824915824915825 4.003367003367  L 4.83164983164983 0.683501683501684  C 5.38159371492705 0.22783389450056  6.04938271604938 0  6.83501683501683 0  C 7.62065095398429 0  8.28843995510662 0.22783389450056  8.83838383838384 0.683501683501684  L 17.5 7.86026936026936  L 26.1616161616162 0.683501683501684  C 26.7115600448934 0.22783389450056  27.3793490460157 0  28.1649831649832 0  C 28.9506172839506 0  29.618406285073 0.22783389450056  30.1683501683502 0.683501683501684  L 34.1750841750842 4.003367003367  C 34.7250280583614 4.45903479236812  35 5.01234567901235  35 5.66329966329966  C 35 6.31425364758698  34.7250280583614 6.8675645342312  34.1750841750842 7.32323232323232  L 25.513468013468 14.5  L 34.1750841750842 21.6767676767677  Z " fill-rule="nonzero" fill="#7f7f7f" stroke="none" transform="matrix(1 0 0 1 480 6 )" />
  </g>
</svg>