<?xml version="1.0" encoding="utf-8"?>
<svg version="1.1" xmlns:xlink="http://www.w3.org/1999/xlink" width="9px" height="11px" xmlns="http://www.w3.org/2000/svg">
  <defs>
    <mask fill="white" id="clip45">
      <path d="M 8.99077894736842 5.5  C 8.99077894736842 8.53090526315791  6.98084210526316 10.9887298245614  4.5 10.9887298245614  C 2.01915789473684 10.9887298245614  0.00922105263157908 8.53090526315791  0.00922105263157908 5.5  C 0.00922105263157908 2.4690947368421  2.01915789473684 0.0112701754385967  4.5 0.0112701754385967  C 6.98084210526316 0.0112701754385967  8.99077894736842 2.4690947368421  8.99077894736842 5.5  Z M 5.88543157894737 3.31883508771929  L 4.49696842105264 5.0170807017544  L 3.1074947368421 3.31883508771929  C 2.99835789473683 3.18544561403508  2.82050526315789 3.18544561403508  2.71035789473685 3.31883508771929  C 2.60122105263158 3.45222456140351  2.60122105263158 3.6696  2.71035789473685 3.80422456140352  L 4.09983157894737 5.50247017543859  L 2.71035789473685 7.20071578947369  C 2.60122105263158 7.33410526315788  2.60122105263158 7.55148070175437  2.71035789473685 7.68610526315788  C 2.8194947368421 7.8194947368421  2.99734736842105 7.8194947368421  3.1074947368421 7.68610526315788  L 4.49696842105264 5.98785964912281  L 5.88644210526316 7.68610526315788  C 5.99557894736842 7.8194947368421  6.17343157894737 7.8194947368421  6.28357894736843 7.68610526315788  C 6.39372631578948 7.55271578947369  6.39271578947367 7.3353403508772  6.28357894736843 7.20071578947369  L 4.8930947368421 5.50247017543859  L 6.28256842105262 3.80422456140352  C 6.39170526315789 3.6708350877193  6.39170526315789 3.45345964912281  6.28256842105262 3.31883508771929  C 6.17343157894737 3.18544561403508  5.99557894736842 3.18544561403508  5.88543157894737 3.31883508771929  Z " fill-rule="evenodd" />
    </mask>
  </defs>
  <g transform="matrix(1 0 0 1 -1101 -25 )">
    <path d="M 8.99077894736842 5.5  C 8.99077894736842 8.53090526315791  6.98084210526316 10.9887298245614  4.5 10.9887298245614  C 2.01915789473684 10.9887298245614  0.00922105263157908 8.53090526315791  0.00922105263157908 5.5  C 0.00922105263157908 2.4690947368421  2.01915789473684 0.0112701754385967  4.5 0.0112701754385967  C 6.98084210526316 0.0112701754385967  8.99077894736842 2.4690947368421  8.99077894736842 5.5  Z M 5.88543157894737 3.31883508771929  L 4.49696842105264 5.0170807017544  L 3.1074947368421 3.31883508771929  C 2.99835789473683 3.18544561403508  2.82050526315789 3.18544561403508  2.71035789473685 3.31883508771929  C 2.60122105263158 3.45222456140351  2.60122105263158 3.6696  2.71035789473685 3.80422456140352  L 4.09983157894737 5.50247017543859  L 2.71035789473685 7.20071578947369  C 2.60122105263158 7.33410526315788  2.60122105263158 7.55148070175437  2.71035789473685 7.68610526315788  C 2.8194947368421 7.8194947368421  2.99734736842105 7.8194947368421  3.1074947368421 7.68610526315788  L 4.49696842105264 5.98785964912281  L 5.88644210526316 7.68610526315788  C 5.99557894736842 7.8194947368421  6.17343157894737 7.8194947368421  6.28357894736843 7.68610526315788  C 6.39372631578948 7.55271578947369  6.39271578947367 7.3353403508772  6.28357894736843 7.20071578947369  L 4.8930947368421 5.50247017543859  L 6.28256842105262 3.80422456140352  C 6.39170526315789 3.6708350877193  6.39170526315789 3.45345964912281  6.28256842105262 3.31883508771929  C 6.17343157894737 3.18544561403508  5.99557894736842 3.18544561403508  5.88543157894737 3.31883508771929  Z " fill-rule="nonzero" fill="#ffffff" stroke="none" transform="matrix(1 0 0 1 1101 25 )" />
    <path d="M 8.99077894736842 5.5  C 8.99077894736842 8.53090526315791  6.98084210526316 10.9887298245614  4.5 10.9887298245614  C 2.01915789473684 10.9887298245614  0.00922105263157908 8.53090526315791  0.00922105263157908 5.5  C 0.00922105263157908 2.4690947368421  2.01915789473684 0.0112701754385967  4.5 0.0112701754385967  C 6.98084210526316 0.0112701754385967  8.99077894736842 2.4690947368421  8.99077894736842 5.5  Z " stroke-width="2" stroke="#aaaaaa" fill="none" transform="matrix(1 0 0 1 1101 25 )" mask="url(#clip45)" />
    <path d="M 5.88543157894737 3.31883508771929  L 4.49696842105264 5.0170807017544  L 3.1074947368421 3.31883508771929  C 2.99835789473683 3.18544561403508  2.82050526315789 3.18544561403508  2.71035789473685 3.31883508771929  C 2.60122105263158 3.45222456140351  2.60122105263158 3.6696  2.71035789473685 3.80422456140352  L 4.09983157894737 5.50247017543859  L 2.71035789473685 7.20071578947369  C 2.60122105263158 7.33410526315788  2.60122105263158 7.55148070175437  2.71035789473685 7.68610526315788  C 2.8194947368421 7.8194947368421  2.99734736842105 7.8194947368421  3.1074947368421 7.68610526315788  L 4.49696842105264 5.98785964912281  L 5.88644210526316 7.68610526315788  C 5.99557894736842 7.8194947368421  6.17343157894737 7.8194947368421  6.28357894736843 7.68610526315788  C 6.39372631578948 7.55271578947369  6.39271578947367 7.3353403508772  6.28357894736843 7.20071578947369  L 4.8930947368421 5.50247017543859  L 6.28256842105262 3.80422456140352  C 6.39170526315789 3.6708350877193  6.39170526315789 3.45345964912281  6.28256842105262 3.31883508771929  C 6.17343157894737 3.18544561403508  5.99557894736842 3.18544561403508  5.88543157894737 3.31883508771929  Z " stroke-width="2" stroke="#aaaaaa" fill="none" transform="matrix(1 0 0 1 1101 25 )" mask="url(#clip45)" />
  </g>
</svg>