<?xml version="1.0" encoding="utf-8"?>
<svg version="1.1" xmlns:xlink="http://www.w3.org/1999/xlink" width="12px" height="12px" viewBox="367 573.5  12 12" xmlns="http://www.w3.org/2000/svg">
  <path d="M 373 573.5  C 376.36 573.5  379 576.14  379 579.5  C 379 582.86  376.36 585.5  373 585.5  C 369.64 585.5  367 582.86  367 579.5  C 367 576.14  369.64 573.5  373 573.5  Z " fill-rule="nonzero" fill="#ffffff" stroke="none" />
  <path d="M 373 574  C 376.08 574  378.5 576.42  378.5 579.5  C 378.5 582.58  376.08 585  373 585  C 369.92 585  367.5 582.58  367.5 579.5  C 367.5 576.42  369.92 574  373 574  Z " stroke-width="1" stroke="#797979" fill="none" />
  <path d="M 373 582.5  C 371.32 582.5  370 581.18  370 579.5  C 370 577.82  371.32 576.5  373 576.5  C 374.68 576.5  376 577.82  376 579.5  C 376 581.18  374.68 582.5  373 582.5  " fill-rule="nonzero" fill="#797979" stroke="none" />
</svg>