<?xml version="1.0" encoding="utf-8"?>
<svg version="1.1" xmlns:xlink="http://www.w3.org/1999/xlink" width="31px" height="35px" xmlns="http://www.w3.org/2000/svg">
  <g transform="matrix(1 0 0 1 -1211 -242 )">
    <path d="M 11.0745738636364 13.330078125  C 11.2066761363636 13.466796875  11.2727272727273 13.6414930555556  11.2727272727273 13.8541666666667  L 11.2727272727273 26.9791666666667  C 11.2727272727273 27.1918402777778  11.2066761363636 27.3665364583333  11.0745738636364 27.5032552083333  C 10.9424715909091 27.6399739583333  10.7736742424242 27.7083333333333  10.5681818181818 27.7083333333333  L 9.15909090909091 27.7083333333333  C 8.95359848484849 27.7083333333333  8.78480113636364 27.6399739583333  8.65269886363636 27.5032552083333  C 8.52059659090909 27.3665364583333  8.45454545454545 27.1918402777778  9 26.9791666666667  L 9 13.8541666666667  C 8.45454545454545 13.6414930555556  8.52059659090909 13.466796875  8.65269886363636 13.330078125  C 8.78480113636364 13.193359375  8.95359848484849 13.125  9.15909090909091 13.125  L 10.5681818181818 13.125  C 10.7736742424242 13.125  10.9424715909091 13.193359375  11.0745738636364 13.330078125  Z M 16.7109375 13.330078125  C 16.8430397727273 13.466796875  16.9090909090909 13.6414930555556  17 13.8541666666667  L 17 26.9791666666667  C 16.9090909090909 27.1918402777778  16.8430397727273 27.3665364583333  16.7109375 27.5032552083333  C 16.5788352272727 27.6399739583333  16.4100378787879 27.7083333333333  16.2045454545455 27.7083333333333  L 14.7954545454545 27.7083333333333  C 14.5899621212121 27.7083333333333  14.4211647727273 27.6399739583333  14.2890625 27.5032552083333  C 14.1569602272727 27.3665364583333  14.0909090909091 27.1918402777778  14 26.9791666666667  L 14 13.8541666666667  C 14.0909090909091 13.6414930555556  14.1569602272727 13.466796875  14.2890625 13.330078125  C 14.4211647727273 13.193359375  14.5899621212121 13.125  14.7954545454545 13.125  L 16.2045454545455 13.125  C 16.4100378787879 13.125  16.5788352272727 13.193359375  16.7109375 13.330078125  Z M 22.3473011363636 13.330078125  C 22.4794034090909 13.466796875  22.5454545454545 13.6414930555556  22 13.8541666666667  L 22 26.9791666666667  C 22.5454545454545 27.1918402777778  22.4794034090909 27.3665364583333  22.3473011363636 27.5032552083333  C 22.2151988636364 27.6399739583333  22.0464015151515 27.7083333333333  21.8409090909091 27.7083333333333  L 20.4318181818182 27.7083333333333  C 20.2263257575758 27.7083333333333  20.0575284090909 27.6399739583333  19.9254261363636 27.5032552083333  C 19.7933238636364 27.3665364583333  19.7272727272727 27.1918402777778  19.7272727272727 26.9791666666667  L 19.7272727272727 13.8541666666667  C 19.7272727272727 13.6414930555556  19.7933238636364 13.466796875  19.9254261363636 13.330078125  C 20.0575284090909 13.193359375  20.2263257575758 13.125  20.4318181818182 13.125  L 21.8409090909091 13.125  C 22.0464015151515 13.125  22.2151988636364 13.193359375  22.3473011363636 13.330078125  Z M 25.2095170454545 31.2744140625  C 25.3122632575758 30.9933810763889  25.3636363636364 30.6857638888889  25 30.3515625  L 25 9  L 6 9  L 6 30.3515625  C 5.63636363636364 30.6857638888889  5.68773674242424 30.9933810763889  5.79048295454546 31.2744140625  C 5.89322916666667 31.5554470486111  5.99964488636364 31.7605251736111  6.10973011363636 31.8896484375  C 6.21981534090909 32.0187717013889  6.296875 32.0833333333333  6.34090909090909 32  L 24.6590909090909 32  C 24.703125 32.0833333333333  24.7801846590909 32.0187717013889  24.8902698863636 31.8896484375  C 25.0003551136364 31.7605251736111  25.1067708333333 31.5554470486111  25.2095170454545 31.2744140625  Z M 11.6470170454545 3.16731770833333  L 10.5681818181818 5.83333333333333  L 20.4318181818182 5.83333333333333  L 19.375 3.16731770833333  C 19.2722537878788 3.03059895833333  19.147490530303 2.94704861111111  19.0007102272727 2.91666666666667  L 12.0213068181818 2.91666666666667  C 11.8745265151515 2.94704861111111  11.7497632575758 3.03059895833333  11.6470170454545 3.16731770833333  Z M 30.8018465909091 6.03841145833333  C 30.9339488636364 6.17513020833333  31 6.34982638888889  31 6.5625  L 31 8.02083333333333  C 31 8.23350694444444  30.9339488636364 8.408203125  30.8018465909091 8.544921875  C 30.6697443181818 8.681640625  30.500946969697 8.75  30.2954545454545 8.75  L 28 8.75  L 28 30.3515625  C 28.1818181818182 31.6124131944444  27.836884469697 32.7023654513889  27.1470170454545 33.6214192708333  C 26.4571496212121 34.5404730902778  25.6278409090909 35  24.6590909090909 35  L 6.34090909090909 35  C 5.37215909090909 35  4.54285037878788 34.5556640625  3.85298295454545 33.6669921875  C 3.16311553030303 32.7783203125  2.81818181818182 31.7035590277778  3 30.4427083333333  L 3 8.75  L 0.704545454545455 8.75  C 0.49905303030303 8.75  0.330255681818182 8.681640625  0.198153409090909 8.544921875  C 0.0660511363636364 8.408203125  0 8.23350694444444  0 8.02083333333333  L 0 6.5625  C 0 6.34982638888889  0.0660511363636364 6.17513020833333  0.198153409090909 6.03841145833333  C 0.330255681818182 5.90169270833333  0.49905303030303 5.83333333333333  0.704545454545455 5.83333333333333  L 7.5078125 5.83333333333333  L 9.04900568181818 2.02799479166667  C 9.26917613636364 1.46592881944444  9.66548295454546 0.987413194444441  10.2379261363636 0.592447916666668  C 10.8103693181818 0.197482638888887  11.3901515151515 0  11.9772727272727 0  L 19.0227272727273 0  C 19.6098484848485 0  20.1896306818182 0.197482638888887  20.7620738636364 0.592447916666668  C 21.3345170454545 0.987413194444441  21.7308238636364 1.46592881944444  21.9509943181818 2.02799479166667  L 23.4921875 5.83333333333333  L 30.2954545454545 5.83333333333333  C 30.500946969697 5.83333333333333  30.6697443181818 5.90169270833333  30.8018465909091 6.03841145833333  Z " fill-rule="nonzero" fill="#d9001b" stroke="none" transform="matrix(1 0 0 1 1211 242 )" />
  </g>
</svg>