<?xml version="1.0" encoding="utf-8"?>
<svg version="1.1" xmlns:xlink="http://www.w3.org/1999/xlink" width="12px" height="12px" viewBox="363 603.5  12 12" xmlns="http://www.w3.org/2000/svg">
  <path d="M 369 603.5  C 372.36 603.5  375 606.14  375 609.5  C 375 612.86  372.36 615.5  369 615.5  C 365.64 615.5  363 612.86  363 609.5  C 363 606.14  365.64 603.5  369 603.5  Z " fill-rule="nonzero" fill="#f0f0f0" stroke="none" />
  <path d="M 369 604  C 372.08 604  374.5 606.42  374.5 609.5  C 374.5 612.58  372.08 615  369 615  C 365.92 615  363.5 612.58  363.5 609.5  C 363.5 606.42  365.92 604  369 604  Z " stroke-width="1" stroke="#797979" fill="none" />
  <path d="M 369 612.5  C 367.32 612.5  366 611.18  366 609.5  C 366 607.82  367.32 606.5  369 606.5  C 370.68 606.5  372 607.82  372 609.5  C 372 611.18  370.68 612.5  369 612.5  " fill-rule="nonzero" fill="#797979" stroke="none" />
</svg>