<?xml version="1.0" encoding="utf-8"?>
<svg version="1.1" xmlns:xlink="http://www.w3.org/1999/xlink" width="27px" height="22px" xmlns="http://www.w3.org/2000/svg">
  <g transform="matrix(1 0 0 1 -461 -206 )">
    <path d="M 16.55859375 13.4921875  C 17.9810697115385 12.3331330128205  18.6923076923077 10.9383012820513  18.6923076923077 9.30769230769231  C 18.6923076923077 7.67708333333333  17.9810697115385 6.2822516025641  16.55859375 5.12319711538462  C 15.1361177884615 3.96414262820513  13.4242788461538 3.38461538461539  11.4230769230769 3.38461538461539  C 9.421875 3.38461538461539  7.71003605769231 3.96414262820513  6.28756009615385 5.12319711538462  C 4.86508413461539 6.2822516025641  4.15384615384615 7.67708333333333  4.15384615384615 9.30769230769231  C 4.15384615384615 10.9383012820513  4.86508413461539 12.3331330128205  6.28756009615385 13.4921875  C 7.71003605769231 14.6512419871795  9.421875 15.2307692307692  11.4230769230769 15.2307692307692  C 13.4242788461538 15.2307692307692  15.1361177884615 14.6512419871795  16.55859375 13.4921875  Z M 26.3996394230769 19.1177884615385  C 26.7998798076923 19.4439102564103  27 19.8405448717949  27 20.3076923076923  C 27 20.7660256410256  26.7944711538462 21.1626602564103  26.3834134615385 21.4975961538462  C 25.9723557692308 21.8325320512821  25.4855769230769 22  24.9230769230769 22  C 24.3389423076923 22  23.8521634615385 21.8325320512821  23.4627403846154 21.4975961538462  L 17.8972355769231 16.9759615384615  C 15.9609375 18.0689102564103  13.8028846153846 18.6153846153846  11.4230769230769 18.6153846153846  C 9.87620192307692 18.6153846153846  8.39693509615385 18.3707932692308  6.98527644230769 17.8816105769231  C 5.57361778846154 17.3924278846154  4.35667067307692 16.7313701923077  3.33443509615385 15.8984375  C 2.31219951923077 15.0655048076923  1.50090144230769 14.0739182692308  0.900540865384615 12.9236778846154  C 0.300180288461538 11.7734375  0 10.568108974359  0 9.30769230769231  C 0 8.04727564102564  0.300180288461538 6.84194711538462  0.900540865384615 5.69170673076923  C 1.50090144230769 4.54146634615385  2.31219951923077 3.54987980769231  3.33443509615385 2.71694711538462  C 4.35667067307692 1.88401442307692  5.57361778846154 1.22295673076923  6.98527644230769 0.733774038461539  C 8.39693509615385 0.244591346153846  9.87620192307692 0  11.4230769230769 0  C 12.9699519230769 0  14.44921875 0.244591346153846  15.8608774038462 0.733774038461539  C 17.2725360576923 1.22295673076923  18.4894831730769 1.88401442307692  19.51171875 2.71694711538462  C 20.5339543269231 3.54987980769231  21.3452524038462 4.54146634615385  21.9456129807692 5.69170673076923  C 22.5459735576923 6.84194711538462  22.8461538461538 8.04727564102564  22.8461538461538 9.30769230769231  C 22.8461538461538 11.2467948717949  22.1754807692308 13.0052083333333  20.8341346153846 14.5829326923077  L 26.3996394230769 19.1177884615385  Z " fill-rule="nonzero" fill="#7f7f7f" stroke="none" transform="matrix(1 0 0 1 461 206 )" />
  </g>
</svg>