<?xml version="1.0" encoding="utf-8"?>
<svg version="1.1" xmlns:xlink="http://www.w3.org/1999/xlink" width="12px" height="12px" viewBox="218 796.5  12 12" xmlns="http://www.w3.org/2000/svg">
  <path d="M 224 796.5  C 227.36 796.5  230 799.14  230 802.5  C 230 805.86  227.36 808.5  224 808.5  C 220.64 808.5  218 805.86  218 802.5  C 218 799.14  220.64 796.5  224 796.5  Z " fill-rule="nonzero" fill="#ffffff" stroke="none" />
  <path d="M 224 797  C 227.08 797  229.5 799.42  229.5 802.5  C 229.5 805.58  227.08 808  224 808  C 220.92 808  218.5 805.58  218.5 802.5  C 218.5 799.42  220.92 797  224 797  Z " stroke-width="1" stroke="#797979" fill="none" />
  <path d="M 224 805.5  C 222.32 805.5  221 804.18  221 802.5  C 221 800.82  222.32 799.5  224 799.5  C 225.68 799.5  227 800.82  227 802.5  C 227 804.18  225.68 805.5  224 805.5  " fill-rule="nonzero" fill="#797979" stroke="none" />
</svg>