<?xml version="1.0" encoding="utf-8"?>
<svg version="1.1" xmlns:xlink="http://www.w3.org/1999/xlink" width="12px" height="12px" viewBox="351 796.5  12 12" xmlns="http://www.w3.org/2000/svg">
  <path d="M 357 796.5  C 360.36 796.5  363 799.14  363 802.5  C 363 805.86  360.36 808.5  357 808.5  C 353.64 808.5  351 805.86  351 802.5  C 351 799.14  353.64 796.5  357 796.5  Z " fill-rule="nonzero" fill="#ffffff" stroke="none" />
  <path d="M 357 797  C 360.08 797  362.5 799.42  362.5 802.5  C 362.5 805.58  360.08 808  357 808  C 353.92 808  351.5 805.58  351.5 802.5  C 351.5 799.42  353.92 797  357 797  Z " stroke-width="1" stroke="#797979" fill="none" />
  <path d="M 357 805.5  C 355.32 805.5  354 804.18  354 802.5  C 354 800.82  355.32 799.5  357 799.5  C 358.68 799.5  360 800.82  360 802.5  C 360 804.18  358.68 805.5  357 805.5  " fill-rule="nonzero" fill="#797979" stroke="none" />
</svg>