<?xml version="1.0" encoding="utf-8"?>
<svg version="1.1" xmlns:xlink="http://www.w3.org/1999/xlink" width="12px" height="12px" viewBox="320 662.5  12 12" xmlns="http://www.w3.org/2000/svg">
  <path d="M 326 662.5  C 329.36 662.5  332 665.14  332 668.5  C 332 671.86  329.36 674.5  326 674.5  C 322.64 674.5  320 671.86  320 668.5  C 320 665.14  322.64 662.5  326 662.5  Z " fill-rule="nonzero" fill="#f0f0f0" stroke="none" />
  <path d="M 326 663  C 329.08 663  331.5 665.42  331.5 668.5  C 331.5 671.58  329.08 674  326 674  C 322.92 674  320.5 671.58  320.5 668.5  C 320.5 665.42  322.92 663  326 663  Z " stroke-width="1" stroke="#797979" fill="none" />
  <path d="M 326 671.5  C 324.32 671.5  323 670.18  323 668.5  C 323 666.82  324.32 665.5  326 665.5  C 327.68 665.5  329 666.82  329 668.5  C 329 670.18  327.68 671.5  326 671.5  " fill-rule="nonzero" fill="#797979" stroke="none" />
</svg>