<?xml version="1.0" encoding="utf-8"?>
<svg version="1.1" xmlns:xlink="http://www.w3.org/1999/xlink" width="12px" height="12px" viewBox="187 662.5  12 12" xmlns="http://www.w3.org/2000/svg">
  <path d="M 193 662.5  C 196.36 662.5  199 665.14  199 668.5  C 199 671.86  196.36 674.5  193 674.5  C 189.64 674.5  187 671.86  187 668.5  C 187 665.14  189.64 662.5  193 662.5  Z " fill-rule="nonzero" fill="#f0f0f0" stroke="none" />
  <path d="M 193 663  C 196.08 663  198.5 665.42  198.5 668.5  C 198.5 671.58  196.08 674  193 674  C 189.92 674  187.5 671.58  187.5 668.5  C 187.5 665.42  189.92 663  193 663  Z " stroke-width="1" stroke="#797979" fill="none" />
  <path d="M 193 671.5  C 191.32 671.5  190 670.18  190 668.5  C 190 666.82  191.32 665.5  193 665.5  C 194.68 665.5  196 666.82  196 668.5  C 196 670.18  194.68 671.5  193 671.5  " fill-rule="nonzero" fill="#797979" stroke="none" />
</svg>