<?xml version="1.0" encoding="utf-8"?>
<svg version="1.1" xmlns:xlink="http://www.w3.org/1999/xlink" width="28px" height="22px" xmlns="http://www.w3.org/2000/svg">
  <g transform="matrix(1 0 0 1 -802 -184 )">
    <path d="M 17.171875 13.4921875  C 18.6470352564103 12.3331330128205  19.3846153846154 10.9383012820513  19.3846153846154 9.30769230769231  C 19.3846153846154 7.67708333333333  18.6470352564103 6.2822516025641  17.171875 5.12319711538462  C 15.6967147435897 3.96414262820513  13.9214743589744 3.38461538461539  11.8461538461538 3.38461538461539  C 9.77083333333333 3.38461538461539  7.99559294871795 3.96414262820513  6.52043269230769 5.12319711538462  C 5.04527243589744 6.2822516025641  4.30769230769231 7.67708333333333  4.30769230769231 9.30769230769231  C 4.30769230769231 10.9383012820513  5.04527243589744 12.3331330128205  6.52043269230769 13.4921875  C 7.99559294871795 14.6512419871795  9.77083333333333 15.2307692307692  11.8461538461538 15.2307692307692  C 13.9214743589744 15.2307692307692  15.6967147435897 14.6512419871795  17.171875 13.4921875  Z M 27.3774038461538 19.1177884615385  C 27.7924679487179 19.4439102564103  28 19.8405448717949  28 20.3076923076923  C 28 20.7660256410256  27.786858974359 21.1626602564103  27.3605769230769 21.4975961538462  C 26.9342948717949 21.8325320512821  26.4294871794872 22  25.8461538461538 22  C 25.2403846153846 22  24.7355769230769 21.8325320512821  24.3317307692308 21.4975961538462  L 18.5600961538462 16.9759615384615  C 16.5520833333333 18.0689102564103  14.3141025641026 18.6153846153846  11.8461538461538 18.6153846153846  C 10.2419871794872 18.6153846153846  8.70793269230769 18.3707932692308  7.24399038461538 17.8816105769231  C 5.78004807692308 17.3924278846154  4.51802884615385 16.7313701923077  3.45793269230769 15.8984375  C 2.39783653846154 15.0655048076923  1.55649038461539 14.0739182692308  0.933894230769231 12.9236778846154  C 0.311298076923077 11.7734375  0 10.568108974359  0 9.30769230769231  C 0 8.04727564102564  0.311298076923077 6.84194711538462  0.933894230769231 5.69170673076923  C 1.55649038461539 4.54146634615385  2.39783653846154 3.54987980769231  3.45793269230769 2.71694711538462  C 4.51802884615385 1.88401442307692  5.78004807692308 1.22295673076923  7.24399038461538 0.733774038461539  C 8.70793269230769 0.244591346153846  10.2419871794872 0  11.8461538461538 0  C 13.4503205128205 0  14.984375 0.244591346153846  16.4483173076923 0.733774038461539  C 17.9122596153846 1.22295673076923  19.1742788461538 1.88401442307692  20.234375 2.71694711538462  C 21.2944711538462 3.54987980769231  22.1358173076923 4.54146634615385  22.7584134615385 5.69170673076923  C 23.3810096153846 6.84194711538462  23.6923076923077 8.04727564102564  23.6923076923077 9.30769230769231  C 23.6923076923077 11.2467948717949  22.9967948717949 13.0052083333333  21.6057692307692 14.5829326923077  L 27.3774038461538 19.1177884615385  Z " fill-rule="nonzero" fill="#7f7f7f" stroke="none" transform="matrix(1 0 0 1 802 184 )" />
  </g>
</svg>