<?xml version="1.0" encoding="utf-8"?>
<svg version="1.1" xmlns:xlink="http://www.w3.org/1999/xlink" width="24px" height="18px" xmlns="http://www.w3.org/2000/svg">
  <defs>
    <mask fill="white" id="clip46">
      <path d="M 23.9754105263158 9  C 23.9754105263158 13.9596631578948  18.6155789473684 17.9815578947368  12 17.9815578947368  C 5.38442105263157 17.9815578947368  0.0245894736842109 13.9596631578948  0.0245894736842109 9  C 0.0245894736842109 4.04033684210525  5.38442105263157 0.0184421052631582  12 0.0184421052631582  C 18.6155789473684 0.0184421052631582  23.9754105263158 4.04033684210525  23.9754105263158 9  Z M 15.6944842105263 5.43082105263157  L 11.9919157894737 8.20976842105265  L 8.28665263157894 5.43082105263157  C 7.99562105263156 5.21254736842103  7.52134736842103 5.21254736842103  7.22762105263161 5.43082105263157  C 6.93658947368422 5.64909473684211  6.93658947368422 6.0048  7.22762105263161 6.22509473684212  L 10.9328842105263 9.00404210526314  L 7.22762105263161 11.7829894736842  C 6.93658947368422 12.0012631578947  6.93658947368422 12.3569684210526  7.22762105263161 12.5772631578947  C 7.51865263157893 12.7955368421053  7.99292631578946 12.7955368421053  8.28665263157894 12.5772631578947  L 11.9919157894737 9.79831578947369  L 15.6971789473684 12.5772631578947  C 15.9882105263158 12.7955368421053  16.4624842105263 12.7955368421053  16.7562105263158 12.5772631578947  C 17.0499368421053 12.3589894736842  17.0472421052631 12.0032842105263  16.7562105263158 11.7829894736842  L 13.0482526315789 9.00404210526314  L 16.7535157894736 6.22509473684212  C 17.044547368421 6.00682105263158  17.044547368421 5.65111578947368  16.7535157894736 5.43082105263157  C 16.4624842105263 5.21254736842103  15.9882105263158 5.21254736842103  15.6944842105263 5.43082105263157  Z " fill-rule="evenodd" />
    </mask>
  </defs>
  <g transform="matrix(1 0 0 1 -287 -25 )">
    <path d="M 23.9754105263158 9  C 23.9754105263158 13.9596631578948  18.6155789473684 17.9815578947368  12 17.9815578947368  C 5.38442105263157 17.9815578947368  0.0245894736842109 13.9596631578948  0.0245894736842109 9  C 0.0245894736842109 4.04033684210525  5.38442105263157 0.0184421052631582  12 0.0184421052631582  C 18.6155789473684 0.0184421052631582  23.9754105263158 4.04033684210525  23.9754105263158 9  Z M 15.6944842105263 5.43082105263157  L 11.9919157894737 8.20976842105265  L 8.28665263157894 5.43082105263157  C 7.99562105263156 5.21254736842103  7.52134736842103 5.21254736842103  7.22762105263161 5.43082105263157  C 6.93658947368422 5.64909473684211  6.93658947368422 6.0048  7.22762105263161 6.22509473684212  L 10.9328842105263 9.00404210526314  L 7.22762105263161 11.7829894736842  C 6.93658947368422 12.0012631578947  6.93658947368422 12.3569684210526  7.22762105263161 12.5772631578947  C 7.51865263157893 12.7955368421053  7.99292631578946 12.7955368421053  8.28665263157894 12.5772631578947  L 11.9919157894737 9.79831578947369  L 15.6971789473684 12.5772631578947  C 15.9882105263158 12.7955368421053  16.4624842105263 12.7955368421053  16.7562105263158 12.5772631578947  C 17.0499368421053 12.3589894736842  17.0472421052631 12.0032842105263  16.7562105263158 11.7829894736842  L 13.0482526315789 9.00404210526314  L 16.7535157894736 6.22509473684212  C 17.044547368421 6.00682105263158  17.044547368421 5.65111578947368  16.7535157894736 5.43082105263157  C 16.4624842105263 5.21254736842103  15.9882105263158 5.21254736842103  15.6944842105263 5.43082105263157  Z " fill-rule="nonzero" fill="#c8c9cc" stroke="none" transform="matrix(1 0 0 1 287 25 )" />
    <path d="M 23.9754105263158 9  C 23.9754105263158 13.9596631578948  18.6155789473684 17.9815578947368  12 17.9815578947368  C 5.38442105263157 17.9815578947368  0.0245894736842109 13.9596631578948  0.0245894736842109 9  C 0.0245894736842109 4.04033684210525  5.38442105263157 0.0184421052631582  12 0.0184421052631582  C 18.6155789473684 0.0184421052631582  23.9754105263158 4.04033684210525  23.9754105263158 9  Z " stroke-width="2" stroke="#aaaaaa" fill="none" transform="matrix(1 0 0 1 287 25 )" mask="url(#clip46)" />
    <path d="M 15.6944842105263 5.43082105263157  L 11.9919157894737 8.20976842105265  L 8.28665263157894 5.43082105263157  C 7.99562105263156 5.21254736842103  7.52134736842103 5.21254736842103  7.22762105263161 5.43082105263157  C 6.93658947368422 5.64909473684211  6.93658947368422 6.0048  7.22762105263161 6.22509473684212  L 10.9328842105263 9.00404210526314  L 7.22762105263161 11.7829894736842  C 6.93658947368422 12.0012631578947  6.93658947368422 12.3569684210526  7.22762105263161 12.5772631578947  C 7.51865263157893 12.7955368421053  7.99292631578946 12.7955368421053  8.28665263157894 12.5772631578947  L 11.9919157894737 9.79831578947369  L 15.6971789473684 12.5772631578947  C 15.9882105263158 12.7955368421053  16.4624842105263 12.7955368421053  16.7562105263158 12.5772631578947  C 17.0499368421053 12.3589894736842  17.0472421052631 12.0032842105263  16.7562105263158 11.7829894736842  L 13.0482526315789 9.00404210526314  L 16.7535157894736 6.22509473684212  C 17.044547368421 6.00682105263158  17.044547368421 5.65111578947368  16.7535157894736 5.43082105263157  C 16.4624842105263 5.21254736842103  15.9882105263158 5.21254736842103  15.6944842105263 5.43082105263157  Z " stroke-width="2" stroke="#aaaaaa" fill="none" transform="matrix(1 0 0 1 287 25 )" mask="url(#clip46)" />
  </g>
</svg>