<?xml version="1.0" encoding="utf-8"?>
<svg version="1.1" xmlns:xlink="http://www.w3.org/1999/xlink" width="40px" height="34px" xmlns="http://www.w3.org/2000/svg">
  <g transform="matrix(1 0 0 1 -407 -33 )">
    <path d="M 34.2503097893432 19.4247856586126  C 34.2668318876497 19.4601195115614  34.275092936803 19.5131202909847  34 19.5837879968823  L 34 32.3039750584567  C 34.275092936803 32.7633151467914  34.1181330028914 33.1608209924656  33.8042131350682 33.4964925954793  C 33.4902932672449 33.8321641984931  33.118546055349 34  32.6889714993804 34  L 23 34  L 23 23.8238503507405  L 17 23.8238503507405  L 17 34  L 7.31102850061958 34  C 6.88145394465097 34  6.50970673275506 33.8321641984931  6.19578686493185 33.4964925954793  C 5.88186699710863 33.1608209924656  5.72490706319703 32.7633151467914  6 32.3039750584567  L 6 19.5837879968823  C 5.72490706319703 19.5661210704079  5.72903758777365 19.5396206806963  5.73729863692689 19.5042868277475  C 5.74555968608013 19.4689529747986  5.74969021065675 19.442452585087  5.74969021065675 19.4247856586126  L 20 6.86360093530787  L 34.2503097893432 19.4247856586126  Z M 39.9752168525403 17.1325019485581  C 39.9917389508468 17.3710054559626  39.9339116067741 17.5785918420369  39.8017348203222 17.755261106781  L 38.2651796778191 19.7162899454404  C 38.1330028913672 19.8752922837101  37.9595208591491 19.9724603793193  37.7447335811648 20.0077942322681  L 37.6703841387856 20.0077942322681  C 37.4555968608013 20.0077942322681  37.2821148285832 19.9459599896077  37.1499380421314 19.8222915042868  L 20 4.53156664068589  L 2.85006195786865 19.8222915042868  C 2.65179677819083 19.9636269160821  2.45353159851301 20.0254611587425  2.25526641883519 20.0077942322681  C 2.04047914085089 19.9724603793193  1.8669971086328 19.8752922837101  1.73482032218092 19.7162899454404  L 0.198265179677819 17.755261106781  C 0.0660883932259397 17.5785918420369  0.00826104915324252 17.3710054559626  0.0247831474597274 17.1325019485581  C 0.0413052457662124 16.8939984411535  0.132176786451879 16.7040789815537  0.297397769516729 16.5627435697584  L 18.1164807930607 0.68901013250195  C 18.6451879388682 0.229670044167313  19.2730276745147 0  20 0  C 20.7269723254853 0  21.3548120611318 0.229670044167313  21.8835192069393 0.68901013250195  L 27.9306071871128 6.09508963367108  L 27.9306071871128 0.927513639906468  C 27.9306071871128 0.68017666926474  28.0049566294919 0.47700701480904  28.1536555142503 0.318004676539362  C 28.3023543990087 0.159002338269681  28.4923585295332 0.0795011691348406  28.723667905824 0.0795011691348406  L 33.4820322180917 0.0795011691348406  C 33.7133415943825 0.0795011691348406  33.9033457249071 0.159002338269681  34.0520446096654 0.318004676539362  C 34.2007434944238 0.47700701480904  34.275092936803 0.68017666926474  34 0.927513639906468  L 34 11.7396726422447  L 39.7026022304833 16.5627435697584  C 39.8678232135481 16.7040789815537  39.9586947542338 16.8939984411535  39.9752168525403 17.1325019485581  Z " fill-rule="nonzero" fill="#d7d7d7" stroke="none" transform="matrix(1 0 0 1 407 33 )" />
  </g>
</svg>