<?xml version="1.0" encoding="utf-8"?>
<svg version="1.1" xmlns:xlink="http://www.w3.org/1999/xlink" width="18px" height="22px" xmlns="http://www.w3.org/2000/svg">
  <defs>
    <mask fill="white" id="clip34">
      <path d="M 17.9815578947368 11  C 17.9815578947368 17.0618105263158  13.9616842105263 21.9774596491228  9 21.9774596491228  C 4.03831578947367 21.9774596491228  0.0184421052631582 17.0618105263158  0.0184421052631582 11  C 0.0184421052631582 4.93818947368419  4.03831578947367 0.0225403508771933  9 0.0225403508771933  C 13.9616842105263 0.0225403508771933  17.9815578947368 4.93818947368419  17.9815578947368 11  Z M 11.7708631578947 6.63767017543859  L 8.99393684210528 10.0341614035088  L 6.21498947368421 6.63767017543859  C 5.99671578947367 6.37089122807015  5.64101052631577 6.37089122807015  5.42071578947371 6.63767017543859  C 5.20244210526317 6.90444912280702  5.20244210526317 7.33920000000001  5.42071578947371 7.60844912280703  L 8.19966315789474 11.0049403508772  L 5.42071578947371 14.4014315789474  C 5.20244210526317 14.6682105263158  5.20244210526317 15.1029614035087  5.42071578947371 15.3722105263158  C 5.6389894736842 15.6389894736842  5.99469473684209 15.6389894736842  6.21498947368421 15.3722105263158  L 8.99393684210528 11.9757192982456  L 11.7728842105263 15.3722105263158  C 11.9911578947368 15.6389894736842  12.3468631578947 15.6389894736842  12.5671578947369 15.3722105263158  C 12.787452631579 15.1054315789474  12.7854315789473 14.6706807017544  12.5671578947369 14.4014315789474  L 9.78618947368421 11.0049403508772  L 12.5651368421052 7.60844912280703  C 12.7834105263158 7.34167017543859  12.7834105263158 6.90691929824561  12.5651368421052 6.63767017543859  C 12.3468631578947 6.37089122807015  11.9911578947368 6.37089122807015  11.7708631578947 6.63767017543859  Z " fill-rule="evenodd" />
    </mask>
  </defs>
  <g transform="matrix(1 0 0 1 -287 -21 )">
    <path d="M 17.9815578947368 11  C 17.9815578947368 17.0618105263158  13.9616842105263 21.9774596491228  9 21.9774596491228  C 4.03831578947367 21.9774596491228  0.0184421052631582 17.0618105263158  0.0184421052631582 11  C 0.0184421052631582 4.93818947368419  4.03831578947367 0.0225403508771933  9 0.0225403508771933  C 13.9616842105263 0.0225403508771933  17.9815578947368 4.93818947368419  17.9815578947368 11  Z M 11.7708631578947 6.63767017543859  L 8.99393684210528 10.0341614035088  L 6.21498947368421 6.63767017543859  C 5.99671578947367 6.37089122807015  5.64101052631577 6.37089122807015  5.42071578947371 6.63767017543859  C 5.20244210526317 6.90444912280702  5.20244210526317 7.33920000000001  5.42071578947371 7.60844912280703  L 8.19966315789474 11.0049403508772  L 5.42071578947371 14.4014315789474  C 5.20244210526317 14.6682105263158  5.20244210526317 15.1029614035087  5.42071578947371 15.3722105263158  C 5.6389894736842 15.6389894736842  5.99469473684209 15.6389894736842  6.21498947368421 15.3722105263158  L 8.99393684210528 11.9757192982456  L 11.7728842105263 15.3722105263158  C 11.9911578947368 15.6389894736842  12.3468631578947 15.6389894736842  12.5671578947369 15.3722105263158  C 12.787452631579 15.1054315789474  12.7854315789473 14.6706807017544  12.5671578947369 14.4014315789474  L 9.78618947368421 11.0049403508772  L 12.5651368421052 7.60844912280703  C 12.7834105263158 7.34167017543859  12.7834105263158 6.90691929824561  12.5651368421052 6.63767017543859  C 12.3468631578947 6.37089122807015  11.9911578947368 6.37089122807015  11.7708631578947 6.63767017543859  Z " fill-rule="nonzero" fill="#ffffff" stroke="none" transform="matrix(1 0 0 1 287 21 )" />
    <path d="M 17.9815578947368 11  C 17.9815578947368 17.0618105263158  13.9616842105263 21.9774596491228  9 21.9774596491228  C 4.03831578947367 21.9774596491228  0.0184421052631582 17.0618105263158  0.0184421052631582 11  C 0.0184421052631582 4.93818947368419  4.03831578947367 0.0225403508771933  9 0.0225403508771933  C 13.9616842105263 0.0225403508771933  17.9815578947368 4.93818947368419  17.9815578947368 11  Z " stroke-width="2" stroke="#aaaaaa" fill="none" transform="matrix(1 0 0 1 287 21 )" mask="url(#clip34)" />
    <path d="M 11.7708631578947 6.63767017543859  L 8.99393684210528 10.0341614035088  L 6.21498947368421 6.63767017543859  C 5.99671578947367 6.37089122807015  5.64101052631577 6.37089122807015  5.42071578947371 6.63767017543859  C 5.20244210526317 6.90444912280702  5.20244210526317 7.33920000000001  5.42071578947371 7.60844912280703  L 8.19966315789474 11.0049403508772  L 5.42071578947371 14.4014315789474  C 5.20244210526317 14.6682105263158  5.20244210526317 15.1029614035087  5.42071578947371 15.3722105263158  C 5.6389894736842 15.6389894736842  5.99469473684209 15.6389894736842  6.21498947368421 15.3722105263158  L 8.99393684210528 11.9757192982456  L 11.7728842105263 15.3722105263158  C 11.9911578947368 15.6389894736842  12.3468631578947 15.6389894736842  12.5671578947369 15.3722105263158  C 12.787452631579 15.1054315789474  12.7854315789473 14.6706807017544  12.5671578947369 14.4014315789474  L 9.78618947368421 11.0049403508772  L 12.5651368421052 7.60844912280703  C 12.7834105263158 7.34167017543859  12.7834105263158 6.90691929824561  12.5651368421052 6.63767017543859  C 12.3468631578947 6.37089122807015  11.9911578947368 6.37089122807015  11.7708631578947 6.63767017543859  Z " stroke-width="2" stroke="#aaaaaa" fill="none" transform="matrix(1 0 0 1 287 21 )" mask="url(#clip34)" />
  </g>
</svg>