<?xml version="1.0" encoding="utf-8"?>
<svg version="1.1" xmlns:xlink="http://www.w3.org/1999/xlink" width="22px" height="22px" xmlns="http://www.w3.org/2000/svg">
  <defs>
    <mask fill="white" id="clip36">
      <path d="M 21.9774596491228 11  C 21.9774596491228 17.0618105263158  17.0642807017544 21.9774596491228  11 21.9774596491228  C 4.9357192982456 21.9774596491228  0.0225403508771933 17.0618105263158  0.0225403508771933 11  C 0.0225403508771933 4.93818947368419  4.9357192982456 0.0225403508771933  11 0.0225403508771933  C 17.0642807017544 0.0225403508771933  21.9774596491228 4.93818947368419  21.9774596491228 11  Z M 14.3866105263158 6.63767017543859  L 10.9925894736842 10.0341614035088  L 7.59609824561403 6.63767017543859  C 7.32931929824559 6.37089122807015  6.89456842105261 6.37089122807015  6.62531929824564 6.63767017543859  C 6.35854035087721 6.90444912280702  6.35854035087721 7.33920000000001  6.62531929824564 7.60844912280703  L 10.0218105263158 11.0049403508772  L 6.62531929824564 14.4014315789474  C 6.35854035087721 14.6682105263158  6.35854035087721 15.1029614035087  6.62531929824564 15.3722105263158  C 6.89209824561402 15.6389894736842  7.326849122807 15.6389894736842  7.59609824561403 15.3722105263158  L 10.9925894736842 11.9757192982456  L 14.3890807017544 15.3722105263158  C 14.6558596491228 15.6389894736842  15.0906105263158 15.6389894736842  15.3598596491228 15.3722105263158  C 15.6291087719299 15.1054315789474  15.6266385964912 14.6706807017544  15.3598596491228 14.4014315789474  L 11.960898245614 11.0049403508772  L 15.3573894736842 7.60844912280703  C 15.6241684210526 7.34167017543859  15.6241684210526 6.90691929824561  15.3573894736842 6.63767017543859  C 15.0906105263158 6.37089122807015  14.6558596491228 6.37089122807015  14.3866105263158 6.63767017543859  Z " fill-rule="evenodd" />
    </mask>
  </defs>
  <g transform="matrix(1 0 0 1 -715 -21 )">
    <path d="M 21.9774596491228 11  C 21.9774596491228 17.0618105263158  17.0642807017544 21.9774596491228  11 21.9774596491228  C 4.9357192982456 21.9774596491228  0.0225403508771933 17.0618105263158  0.0225403508771933 11  C 0.0225403508771933 4.93818947368419  4.9357192982456 0.0225403508771933  11 0.0225403508771933  C 17.0642807017544 0.0225403508771933  21.9774596491228 4.93818947368419  21.9774596491228 11  Z M 14.3866105263158 6.63767017543859  L 10.9925894736842 10.0341614035088  L 7.59609824561403 6.63767017543859  C 7.32931929824559 6.37089122807015  6.89456842105261 6.37089122807015  6.62531929824564 6.63767017543859  C 6.35854035087721 6.90444912280702  6.35854035087721 7.33920000000001  6.62531929824564 7.60844912280703  L 10.0218105263158 11.0049403508772  L 6.62531929824564 14.4014315789474  C 6.35854035087721 14.6682105263158  6.35854035087721 15.1029614035087  6.62531929824564 15.3722105263158  C 6.89209824561402 15.6389894736842  7.326849122807 15.6389894736842  7.59609824561403 15.3722105263158  L 10.9925894736842 11.9757192982456  L 14.3890807017544 15.3722105263158  C 14.6558596491228 15.6389894736842  15.0906105263158 15.6389894736842  15.3598596491228 15.3722105263158  C 15.6291087719299 15.1054315789474  15.6266385964912 14.6706807017544  15.3598596491228 14.4014315789474  L 11.960898245614 11.0049403508772  L 15.3573894736842 7.60844912280703  C 15.6241684210526 7.34167017543859  15.6241684210526 6.90691929824561  15.3573894736842 6.63767017543859  C 15.0906105263158 6.37089122807015  14.6558596491228 6.37089122807015  14.3866105263158 6.63767017543859  Z " fill-rule="nonzero" fill="#ffffff" stroke="none" transform="matrix(1 0 0 1 715 21 )" />
    <path d="M 21.9774596491228 11  C 21.9774596491228 17.0618105263158  17.0642807017544 21.9774596491228  11 21.9774596491228  C 4.9357192982456 21.9774596491228  0.0225403508771933 17.0618105263158  0.0225403508771933 11  C 0.0225403508771933 4.93818947368419  4.9357192982456 0.0225403508771933  11 0.0225403508771933  C 17.0642807017544 0.0225403508771933  21.9774596491228 4.93818947368419  21.9774596491228 11  Z " stroke-width="2" stroke="#aaaaaa" fill="none" transform="matrix(1 0 0 1 715 21 )" mask="url(#clip36)" />
    <path d="M 14.3866105263158 6.63767017543859  L 10.9925894736842 10.0341614035088  L 7.59609824561403 6.63767017543859  C 7.32931929824559 6.37089122807015  6.89456842105261 6.37089122807015  6.62531929824564 6.63767017543859  C 6.35854035087721 6.90444912280702  6.35854035087721 7.33920000000001  6.62531929824564 7.60844912280703  L 10.0218105263158 11.0049403508772  L 6.62531929824564 14.4014315789474  C 6.35854035087721 14.6682105263158  6.35854035087721 15.1029614035087  6.62531929824564 15.3722105263158  C 6.89209824561402 15.6389894736842  7.326849122807 15.6389894736842  7.59609824561403 15.3722105263158  L 10.9925894736842 11.9757192982456  L 14.3890807017544 15.3722105263158  C 14.6558596491228 15.6389894736842  15.0906105263158 15.6389894736842  15.3598596491228 15.3722105263158  C 15.6291087719299 15.1054315789474  15.6266385964912 14.6706807017544  15.3598596491228 14.4014315789474  L 11.960898245614 11.0049403508772  L 15.3573894736842 7.60844912280703  C 15.6241684210526 7.34167017543859  15.6241684210526 6.90691929824561  15.3573894736842 6.63767017543859  C 15.0906105263158 6.37089122807015  14.6558596491228 6.37089122807015  14.3866105263158 6.63767017543859  Z " stroke-width="2" stroke="#aaaaaa" fill="none" transform="matrix(1 0 0 1 715 21 )" mask="url(#clip36)" />
  </g>
</svg>