<?xml version="1.0" encoding="utf-8"?>
<svg version="1.1" xmlns:xlink="http://www.w3.org/1999/xlink" width="20px" height="41px" xmlns="http://www.w3.org/2000/svg">
  <g transform="matrix(1 0 0 1 -14 -2 )">
    <path d="M 20 5.84987593052109  C 20 6.29073614557485  19.8777348777349 6.67224979321753  19.6332046332046 6.99441687344913  L 9.38223938223938 20.5  L 19.6332046332046 34.0055831265509  C 19.8777348777349 34.3277502067825  20 34.7092638544251  20 35.1501240694789  C 20 35.5909842845327  19.8777348777349 35.9724979321754  19.6332046332046 36.2946650124069  L 16.4285714285714 40.5167493796526  C 16.1840411840412 40.8389164598842  15.8944658944659 41  15.5598455598456 41  C 15.2252252252252 41  14.9356499356499 40.8389164598842  14.6911196911197 40.5167493796526  L 0.366795366795367 21.644540942928  C 0.122265122265122 21.3223738626964  0 20.9408602150538  0 20.5  C 0 20.0591397849462  0.122265122265122 19.6776261373036  0.366795366795367 19.355459057072  L 14.6911196911197 0.483250620347393  C 14.9356499356499 0.161083540115796  15.2252252252252 0  15.5598455598456 0  C 15.8944658944659 0  16.1840411840412 0.161083540115796  16.4285714285714 0.483250620347393  L 19.6332046332046 4.70533498759305  C 19.8777348777349 5.02750206782464  20 5.40901571546732  20 5.84987593052109  Z " fill-rule="nonzero" fill="#7f7f7f" stroke="none" transform="matrix(1 0 0 1 14 2 )" />
  </g>
</svg>