<?xml version="1.0" encoding="utf-8"?>
<svg version="1.1" xmlns:xlink="http://www.w3.org/1999/xlink" width="22px" height="34px" xmlns="http://www.w3.org/2000/svg">
  <g transform="matrix(1 0 0 1 -11 -8 )">
    <path d="M 21.6219931271478 2.0440881763527  C 21.8739977090493 2.27120908483634  22 2.53239812959251  22 2.82765531062124  C 22 3.12291249164997  21.8739977090493 3.38410153640614  21.6219931271478 3.61122244488978  L 6.76632302405498 17  L 21.6219931271478 30.3887775551102  C 21.8739977090493 30.6158984635939  22 30.87708750835  22 31.1723446893788  C 22 31.4676018704075  21.8739977090493 31.7287909151637  21.6219931271478 31.9559118236473  L 19.7319587628866 33.6593186372746  C 19.4799541809851 33.8864395457582  19.1901489117984 34  18.8625429553265 34  C 18.5349369988545 34  18.2451317296678 33.8864395457582  17.9931271477663 33.6593186372746  L 0.378006872852234 17.7835671342685  C 0.126002290950745 17.5564462257849  0 17.2952571810287  0 17  C 0 16.7047428189713  0.126002290950745 16.4435537742151  0.378006872852234 16.2164328657315  L 17.9931271477663 0.340681362725451  C 18.2451317296678 0.113560454241816  18.5349369988545 0  18.8625429553265 0  C 19.1901489117984 0  19.4799541809851 0.113560454241816  19.7319587628866 0.340681362725451  L 21.6219931271478 2.0440881763527  Z " fill-rule="nonzero" fill="#555555" stroke="none" transform="matrix(1 0 0 1 11 8 )" />
  </g>
</svg>