<?xml version="1.0" encoding="utf-8"?>
<svg version="1.1" xmlns:xlink="http://www.w3.org/1999/xlink" width="7px" height="11px" xmlns="http://www.w3.org/2000/svg">
  <defs>
    <mask fill="white" id="clip39">
      <path d="M 6.99282807017544 5.5  C 6.99282807017544 8.53090526315791  5.42954385964913 10.9887298245614  3.5 10.9887298245614  C 1.57045614035087 10.9887298245614  0.00717192982456151 8.53090526315791  0.00717192982456151 5.5  C 0.00717192982456151 2.4690947368421  1.57045614035087 0.0112701754385967  3.5 0.0112701754385967  C 5.42954385964913 0.0112701754385967  6.99282807017544 2.4690947368421  6.99282807017544 5.5  Z M 4.57755789473684 3.31883508771929  L 3.49764210526317 5.0170807017544  L 2.41694035087719 3.31883508771929  C 2.33205614035087 3.18544561403508  2.19372631578947 3.18544561403508  2.10805614035089 3.31883508771929  C 2.02317192982457 3.45222456140351  2.02317192982457 3.6696  2.10805614035089 3.80422456140352  L 3.18875789473684 5.50247017543859  L 2.10805614035089 7.20071578947369  C 2.02317192982457 7.33410526315788  2.02317192982457 7.55148070175437  2.10805614035089 7.68610526315788  C 2.19294035087719 7.8194947368421  2.33127017543859 7.8194947368421  2.41694035087719 7.68610526315788  L 3.49764210526317 5.98785964912281  L 4.57834385964912 7.68610526315788  C 4.66322807017544 7.8194947368421  4.80155789473685 7.8194947368421  4.88722807017544 7.68610526315788  C 4.97289824561404 7.55271578947369  4.97211228070175 7.3353403508772  4.88722807017544 7.20071578947369  L 3.80574035087719 5.50247017543859  L 4.88644210526315 3.80422456140352  C 4.97132631578947 3.6708350877193  4.97132631578947 3.45345964912281  4.88644210526315 3.31883508771929  C 4.80155789473685 3.18544561403508  4.66322807017544 3.18544561403508  4.57755789473684 3.31883508771929  Z " fill-rule="evenodd" />
    </mask>
  </defs>
  <g transform="matrix(1 0 0 1 -271 -124 )">
    <path d="M 6.99282807017544 5.5  C 6.99282807017544 8.53090526315791  5.42954385964913 10.9887298245614  3.5 10.9887298245614  C 1.57045614035087 10.9887298245614  0.00717192982456151 8.53090526315791  0.00717192982456151 5.5  C 0.00717192982456151 2.4690947368421  1.57045614035087 0.0112701754385967  3.5 0.0112701754385967  C 5.42954385964913 0.0112701754385967  6.99282807017544 2.4690947368421  6.99282807017544 5.5  Z M 4.57755789473684 3.31883508771929  L 3.49764210526317 5.0170807017544  L 2.41694035087719 3.31883508771929  C 2.33205614035087 3.18544561403508  2.19372631578947 3.18544561403508  2.10805614035089 3.31883508771929  C 2.02317192982457 3.45222456140351  2.02317192982457 3.6696  2.10805614035089 3.80422456140352  L 3.18875789473684 5.50247017543859  L 2.10805614035089 7.20071578947369  C 2.02317192982457 7.33410526315788  2.02317192982457 7.55148070175437  2.10805614035089 7.68610526315788  C 2.19294035087719 7.8194947368421  2.33127017543859 7.8194947368421  2.41694035087719 7.68610526315788  L 3.49764210526317 5.98785964912281  L 4.57834385964912 7.68610526315788  C 4.66322807017544 7.8194947368421  4.80155789473685 7.8194947368421  4.88722807017544 7.68610526315788  C 4.97289824561404 7.55271578947369  4.97211228070175 7.3353403508772  4.88722807017544 7.20071578947369  L 3.80574035087719 5.50247017543859  L 4.88644210526315 3.80422456140352  C 4.97132631578947 3.6708350877193  4.97132631578947 3.45345964912281  4.88644210526315 3.31883508771929  C 4.80155789473685 3.18544561403508  4.66322807017544 3.18544561403508  4.57755789473684 3.31883508771929  Z " fill-rule="nonzero" fill="#ffffff" stroke="none" transform="matrix(1 0 0 1 271 124 )" />
    <path d="M 6.99282807017544 5.5  C 6.99282807017544 8.53090526315791  5.42954385964913 10.9887298245614  3.5 10.9887298245614  C 1.57045614035087 10.9887298245614  0.00717192982456151 8.53090526315791  0.00717192982456151 5.5  C 0.00717192982456151 2.4690947368421  1.57045614035087 0.0112701754385967  3.5 0.0112701754385967  C 5.42954385964913 0.0112701754385967  6.99282807017544 2.4690947368421  6.99282807017544 5.5  Z " stroke-width="2" stroke="#aaaaaa" fill="none" transform="matrix(1 0 0 1 271 124 )" mask="url(#clip39)" />
    <path d="M 4.57755789473684 3.31883508771929  L 3.49764210526317 5.0170807017544  L 2.41694035087719 3.31883508771929  C 2.33205614035087 3.18544561403508  2.19372631578947 3.18544561403508  2.10805614035089 3.31883508771929  C 2.02317192982457 3.45222456140351  2.02317192982457 3.6696  2.10805614035089 3.80422456140352  L 3.18875789473684 5.50247017543859  L 2.10805614035089 7.20071578947369  C 2.02317192982457 7.33410526315788  2.02317192982457 7.55148070175437  2.10805614035089 7.68610526315788  C 2.19294035087719 7.8194947368421  2.33127017543859 7.8194947368421  2.41694035087719 7.68610526315788  L 3.49764210526317 5.98785964912281  L 4.57834385964912 7.68610526315788  C 4.66322807017544 7.8194947368421  4.80155789473685 7.8194947368421  4.88722807017544 7.68610526315788  C 4.97289824561404 7.55271578947369  4.97211228070175 7.3353403508772  4.88722807017544 7.20071578947369  L 3.80574035087719 5.50247017543859  L 4.88644210526315 3.80422456140352  C 4.97132631578947 3.6708350877193  4.97132631578947 3.45345964912281  4.88644210526315 3.31883508771929  C 4.80155789473685 3.18544561403508  4.66322807017544 3.18544561403508  4.57755789473684 3.31883508771929  Z " stroke-width="2" stroke="#aaaaaa" fill="none" transform="matrix(1 0 0 1 271 124 )" mask="url(#clip39)" />
  </g>
</svg>