<?xml version="1.0" encoding="utf-8"?>
<svg version="1.1" xmlns:xlink="http://www.w3.org/1999/xlink" width="51px" height="81px" xmlns="http://www.w3.org/2000/svg">
  <g transform="matrix(1 0 0 1 -105 -87 )">
    <path d="M 130 87.5  C 135.32 87.5  139.5 91.68  139.5 97  C 139.5 102.32  135.32 106.5  130 106.5  C 124.68 106.5  120.5 102.32  120.5 97  C 120.5 91.68  124.68 87.5  130 87.5  Z " fill-rule="nonzero" fill="#ffffff" stroke="none" />
    <path d="M 130 87.5  C 135.32 87.5  139.5 91.68  139.5 97  C 139.5 102.32  135.32 106.5  130 106.5  C 124.68 106.5  120.5 102.32  120.5 97  C 120.5 91.68  124.68 87.5  130 87.5  Z " stroke-width="1" stroke="#797979" fill="none" />
    <path d="M 105 117  L 155 117  M 130 107  L 130 142  M 110 167  L 130 142  M 130 142  L 150 167  " stroke-width="1" stroke="#797979" fill="none" />
  </g>
</svg>