<?xml version="1.0" encoding="utf-8"?>
<svg version="1.1" xmlns:xlink="http://www.w3.org/1999/xlink" width="31px" height="20px" xmlns="http://www.w3.org/2000/svg">
  <g transform="matrix(1 0 0 1 -309 -454 )">
    <path d="M 17.7262620192308 5.13392857142857  C 18.6763822115385 5.69940476190476  19.1514423076923 6.38392857142857  19.1514423076923 7.1875  C 19.1514423076923 7.98363095238095  18.6763822115385 8.66443452380952  17.7262620192308 9.22991071428571  C 16.7761418269231 9.79538690476191  15.6366185897436 10.078125  14.3076923076923 10.078125  C 12.978766025641 10.078125  11.8392427884615 9.79538690476191  10.8891225961538 9.22991071428571  C 9.93900240384616 8.66443452380952  9.46394230769231 7.98363095238095  9.46394230769231 7.1875  C 9.46394230769231 6.38392857142857  9.93900240384616 5.69940476190476  10.8891225961538 5.13392857142857  C 11.8392427884615 4.56845238095238  12.978766025641 4.28571428571429  14.3076923076923 4.28571428571429  C 15.6366185897436 4.28571428571429  16.7761418269231 4.56845238095238  17.7262620192308 5.13392857142857  Z M 17.6610576923077 9.86049107142857  C 17.9715544871795 9.74516369047619  18.1702724358974 9.67261904761905  18.2572115384615 9.64285714285714  C 18.8285256410256 9.64285714285714  19.3408453525641 9.70610119047619  19.7941706730769 9.83258928571429  C 20.2474959935897 9.95907738095238  20.6200921474359 10.1357886904762  20.9119591346154 10.3627232142857  C 21.2038261217949 10.5896577380952  21.4491185897436 10.8389136904762  21.6478365384615 11.1104910714286  C 21.8465544871795 11.382068452381  21.995592948718 11.6834077380952  22.0949519230769 12.0145089285714  C 22.1943108974359 12.3456101190476  22.2657251602564 12.6525297619048  22.3091947115385 12.9352678571429  C 22.3526642628205 13.218005952381  22.3743990384615 13.5119047619048  22.3743990384615 13.8169642857143  C 22.3743990384615 14.3154761904762  22.1291065705128 14.7563244047619  21.6385216346154 15.1395089285714  C 21.147936698718 15.522693452381  20.4927884615385 15.7142857142857  19.6730769230769 15.7142857142857  L 8.94230769230769 15.7142857142857  C 8.12259615384616 15.7142857142857  7.46744791666667 15.522693452381  6.97686298076923 15.1395089285714  C 6.4862780448718 14.7563244047619  6.24098557692308 14.3154761904762  6.24098557692308 13.8169642857143  C 6.24098557692308 13.4598214285714  6.26893028846154 13.1119791666667  6.32481971153846 12.7734375  C 6.38070913461539 12.4348958333333  6.49559294871795 12.0684523809524  6.66947115384615 11.6741071428571  C 6.84334935897436 11.2797619047619  7.07001201923077 10.9393601190476  7.34945913461539 10.6529017857143  C 7.62890625 10.366443452381  8.02013221153846 10.1264880952381  8.52313701923077 9.93303571428571  C 9.02614182692308 9.73958333333333  9.60677083333333 9.64285714285714  10.2650240384615 9.64285714285714  L 10.3581730769231 9.64285714285714  C 10.4451121794872 9.67261904761905  10.6438301282051 9.74516369047619  10.9543269230769 9.86049107142857  C 11.2648237179487 9.97581845238095  11.4852764423077 10.053943452381  11.6156850961538 10.0948660714286  C 11.74609375 10.1357886904762  11.9510216346154 10.1990327380952  12.23046875 10.2845982142857  C 12.5099158653846 10.3701636904762  12.7396834935897 10.4296875  12.9197716346154 10.4631696428571  C 13.099859775641 10.4966517857143  13.3172075320513 10.5301339285714  13.5718149038462 10.5636160714286  C 13.826422275641 10.5970982142857  14.0717147435897 10.6138392857143  14.3076923076923 10.6138392857143  C 14.5436698717949 10.6138392857143  14.7889623397436 10.5970982142857  15.0435697115385 10.5636160714286  C 15.2981770833333 10.5301339285714  15.5155248397436 10.4966517857143  15.6956129807692 10.4631696428571  C 15.8757011217949 10.4296875  16.10546875 10.3701636904762  16.3849158653846 10.2845982142857  C 16.6643629807692 10.1990327380952  16.8692908653846 10.1357886904762  16.9996995192308 10.0948660714286  C 17.1301081730769 10.053943452381  17.3505608974359 9.97581845238095  17.6610576923077 9.86049107142857  Z M 31 4.64285714285714  L 31 6.78571428571429  C 31 6.88244047619047  30.9410056089744 6.96614583333333  30.8230168269231 7.03683035714286  C 30.7050280448718 7.10751488095238  30.5653044871795 7.14285714285714  30.4038461538462 7.14285714285714  L 28.6153846153846 7.14285714285714  L 28.6153846153846 8.57142857142857  L 30.4038461538462 8.57142857142857  C 30.5653044871795 8.57142857142857  30.7050280448718 8.60677083333334  30.8230168269231 8.67745535714286  C 30.9410056089744 8.74813988095238  31 8.83184523809524  31 8.92857142857143  L 31 11.0714285714286  C 31 11.1681547619048  30.9410056089744 11.2518601190476  30.8230168269231 11.3225446428571  C 30.7050280448718 11.3932291666667  30.5653044871795 11.4285714285714  30.4038461538462 11.4285714285714  L 28.6153846153846 11.4285714285714  L 28.6153846153846 12.8571428571429  L 30.4038461538462 12.8571428571429  C 30.5653044871795 12.8571428571429  30.7050280448718 12.8924851190476  30.8230168269231 12.9631696428571  C 30.9410056089744 13.0338541666667  31 13.1175595238095  31 13.2142857142857  L 31 15.3571428571429  C 31 15.453869047619  30.9410056089744 15.5375744047619  30.8230168269231 15.6082589285714  C 30.7050280448718 15.678943452381  30.5653044871795 15.7142857142857  30.4038461538462 15.7142857142857  L 28.6153846153846 15.7142857142857  L 28.6153846153846 18.2142857142857  C 28.6153846153846 18.7053571428571  28.3235176282051 19.125744047619  27.7397836538462 19.4754464285714  C 27.1560496794872 19.8251488095238  26.4543269230769 20  25.6346153846154 20  L 2.98076923076923 20  C 2.16105769230769 20  1.45933493589744 19.8251488095238  0.875600961538462 19.4754464285714  C 0.291866987179487 19.125744047619  0 18.7053571428571  0 18.2142857142857  L 0 1.78571428571429  C 0 1.29464285714286  0.291866987179487 0.874255952380951  0.875600961538462 0.524553571428572  C 1.45933493589744 0.174851190476191  2.16105769230769 0  2.98076923076923 0  L 25.6346153846154 0  C 26.4543269230769 0  27.1560496794872 0.174851190476191  27.7397836538462 0.524553571428572  C 28.3235176282051 0.874255952380951  28.6153846153846 1.29464285714286  28.6153846153846 1.78571428571429  L 28.6153846153846 4.28571428571429  L 30.4038461538462 4.28571428571429  C 30.5653044871795 4.28571428571429  30.7050280448718 4.32105654761905  30.8230168269231 4.39174107142857  C 30.9410056089744 4.46242559523809  31 4.54613095238095  31 4.64285714285714  Z M 26.0537860576923 18.4654017857143  C 26.1717748397436 18.3947172619048  26.2307692307692 18.3110119047619  26 18.2142857142857  L 26 1.78571428571429  C 26.2307692307692 1.6889880952381  26.1717748397436 1.60528273809524  26.0537860576923 1.53459821428571  C 25.935797275641 1.46391369047619  25.7960737179487 1.42857142857143  25.6346153846154 1.42857142857143  L 2.98076923076923 1.42857142857143  C 2.8193108974359 1.42857142857143  2.67958733974359 1.46391369047619  2.56159855769231 1.53459821428571  C 2.44360977564103 1.60528273809524  2.38461538461538 1.6889880952381  3 1.78571428571429  L 3 18.2142857142857  C 2.38461538461538 18.3110119047619  2.44360977564103 18.3947172619048  2.56159855769231 18.4654017857143  C 2.67958733974359 18.5360863095238  2.8193108974359 18.5714285714286  2.98076923076923 18.5714285714286  L 25.6346153846154 18.5714285714286  C 25.7960737179487 18.5714285714286  25.935797275641 18.5360863095238  26.0537860576923 18.4654017857143  Z " fill-rule="nonzero" fill="#2db6f3" stroke="none" transform="matrix(1 0 0 1 309 454 )" />
  </g>
</svg>