<?xml version="1.0" encoding="utf-8"?>
<svg version="1.1" xmlns:xlink="http://www.w3.org/1999/xlink" width="16px" height="25px" xmlns="http://www.w3.org/2000/svg">
  <g transform="matrix(1 0 0 1 -86 -51 )">
    <path d="M 15.7250859106529 1.50300601202405  C 15.9083619702176 1.67000668002672  16 1.86205744822979  16 2.07915831663327  C 16 2.29625918503674  15.9083619702176 2.48830995323981  15.7250859106529 2.65531062124249  L 4.92096219931272 12.5  L 15.7250859106529 22.3446893787575  C 15.9083619702176 22.5116900467602  16 22.7037408149633  16 22.9208416833667  C 16 23.1379425517702  15.9083619702176 23.3299933199733  15.7250859106529 23.496993987976  L 14.3505154639175 24.749498997996  C 14.1672394043528 24.9164996659987  13.9564719358534 25  13.7182130584192 25  C 13.4799541809851 25  13.2691867124857 24.9164996659987  13.085910652921 24.749498997996  L 0.274914089347079 13.0761523046092  C 0.0916380297823597 12.9091516366065  0 12.7171008684035  0 12.5  C 0 12.2828991315965  0.0916380297823597 12.0908483633935  0.274914089347079 11.9238476953908  L 13.085910652921 0.250501002004008  C 13.2691867124857 0.0835003340013352  13.4799541809851 0  13.7182130584192 0  C 13.9564719358534 0  14.1672394043528 0.0835003340013352  14.3505154639175 0.250501002004008  L 15.7250859106529 1.50300601202405  Z " fill-rule="nonzero" fill="#ffffff" stroke="none" transform="matrix(1 0 0 1 86 51 )" />
  </g>
</svg>