<?xml version="1.0" encoding="utf-8"?>
<svg version="1.1" xmlns:xlink="http://www.w3.org/1999/xlink" width="16px" height="25px" xmlns="http://www.w3.org/2000/svg">
  <g transform="matrix(1 0 0 1 -299 -54 )">
    <path d="M 0.27491408934708 23.496993987976  C 0.0916380297823576 23.3299933199733  0 23.1379425517702  0 22.9208416833667  C 0 22.7037408149633  0.0916380297823576 22.5116900467602  0.27491408934708 22.3446893787575  L 11.0790378006873 12.5  L 0.27491408934708 2.65531062124249  C 0.0916380297823576 2.48830995323981  0 2.29625918503674  0 2.07915831663327  C 0 1.86205744822979  0.0916380297823576 1.67000668002672  0.27491408934708 1.50300601202405  L 1.64948453608247 0.250501002004008  C 1.83276059564719 0.0835003340013352  2.04352806414662 0  2.28178694158076 0  C 2.52004581901489 0  2.73081328751432 0.0835003340013352  2.91408934707904 0.250501002004008  L 15.7250859106529 11.9238476953908  C 15.9083619702176 12.0908483633935  16 12.2828991315965  16 12.5  C 16 12.7171008684035  15.9083619702176 12.9091516366065  15.7250859106529 13.0761523046092  L 2.91408934707904 24.749498997996  C 2.73081328751432 24.9164996659987  2.52004581901489 25  2.28178694158076 25  C 2.04352806414662 25  1.83276059564719 24.9164996659987  1.64948453608247 24.749498997996  L 0.27491408934708 23.496993987976  Z " fill-rule="nonzero" fill="#ffffff" stroke="none" transform="matrix(1 0 0 1 299 54 )" />
  </g>
</svg>