<?xml version="1.0" encoding="utf-8"?>
<svg version="1.1" xmlns:xlink="http://www.w3.org/1999/xlink" width="448px" height="915px" xmlns="http://www.w3.org/2000/svg">
  <defs>
    <filter x="259px" y="153px" width="448px" height="915px" filterUnits="userSpaceOnUse" id="filter30">
      <feOffset dx="9" dy="5" in="SourceAlpha" result="shadowOffsetInner" />
      <feGaussianBlur stdDeviation="4.5" in="shadowOffsetInner" result="shadowGaussian" />
      <feComposite in2="shadowGaussian" operator="atop" in="SourceAlpha" result="shadowComposite" />
      <feColorMatrix type="matrix" values="0 0 0 0 0  0 0 0 0 0  0 0 0 0 0  0 0 0 0.349019607843137 0  " in="shadowComposite" />
    </filter>
    <g id="widget31">
      <path d="M 269 225  A 58 58 0 0 1 327 167 L 621 167  A 58 58 0 0 1 679 225 L 679 986  A 58 58 0 0 1 621 1044 L 327 1044  A 58 58 0 0 1 269 986 L 269 225  Z " fill-rule="nonzero" fill="#000000" stroke="none" />
      <path d="M 264 225  A 63 63 0 0 1 327 162 L 621 162  A 63 63 0 0 1 684 225 L 684 986  A 63 63 0 0 1 621 1049 L 327 1049  A 63 63 0 0 1 264 986 L 264 225  Z " stroke-width="10" stroke="#d7d7d7" fill="none" stroke-opacity="0.992156862745098" />
    </g>
  </defs>
  <g transform="matrix(1 0 0 1 -259 -153 )">
    <use xlink:href="#widget31" filter="url(#filter30)" />
    <use xlink:href="#widget31" />
  </g>
</svg>