<?xml version="1.0" encoding="utf-8"?>
<svg version="1.1" xmlns:xlink="http://www.w3.org/1999/xlink" width="29px" height="26px" xmlns="http://www.w3.org/2000/svg">
  <g transform="matrix(1 0 0 1 -309 -191 )">
    <path d="M 28.3164983164983 19.4343434343434  C 28.7721661054994 19.8428731762065  29 20.3389450056117  29 20.9225589225589  C 29 21.5061728395062  28.7721661054994 22.0022446689113  28.3164983164983 22.4107744107744  L 24.996632996633 25.3872053872054  C 24.5409652076319 25.7957351290685  23.9876543209877 26  23.3367003367003 26  C 22.685746352413 26  22.1324354657688 25.7957351290685  21.6767676767677 25.3872053872054  L 14.5 18.952861952862  L 7.32323232323232 25.3872053872054  C 6.8675645342312 25.7957351290685  6.31425364758698 26  5.66329966329966 26  C 5.01234567901235 26  4.45903479236813 25.7957351290685  4.003367003367 25.3872053872054  L 0.683501683501684 22.4107744107744  C 0.227833894500561 22.0022446689113  0 21.5061728395062  0 20.9225589225589  C 0 20.3389450056117  0.227833894500561 19.8428731762065  0.683501683501684 19.4343434343434  L 7.86026936026936 13  L 0.683501683501684 6.56565656565656  C 0.227833894500561 6.15712682379349  0 5.66105499438833  0 5.07744107744108  C 0 4.49382716049383  0.227833894500561 3.99775533108866  0.683501683501684 3.58922558922559  L 4.003367003367 0.612794612794613  C 4.45903479236813 0.204264870931537  5.01234567901235 0  5.66329966329966 0  C 6.31425364758698 0  6.8675645342312 0.204264870931537  7.32323232323232 0.612794612794613  L 14.5 7.04713804713805  L 21.6767676767677 0.612794612794613  C 22.1324354657688 0.204264870931537  22.685746352413 0  23.3367003367003 0  C 23.9876543209877 0  24.5409652076319 0.204264870931537  24.996632996633 0.612794612794613  L 28.3164983164983 3.58922558922559  C 28.7721661054994 3.99775533108866  29 4.49382716049383  29 5.07744107744108  C 29 5.66105499438833  28.7721661054994 6.15712682379349  28.3164983164983 6.56565656565656  L 21.1397306397306 13  L 28.3164983164983 19.4343434343434  Z " fill-rule="nonzero" fill="#ffffff" stroke="none" transform="matrix(1 0 0 1 309 191 )" />
  </g>
</svg>