<?xml version="1.0" encoding="utf-8"?>
<svg version="1.1" xmlns:xlink="http://www.w3.org/1999/xlink" width="40px" height="50px" xmlns="http://www.w3.org/2000/svg">
  <defs>
    <filter x="710px" y="264px" width="40px" height="50px" filterUnits="userSpaceOnUse" id="filter32">
      <feOffset dx="1" dy="1" in="SourceAlpha" result="shadowOffsetInner" />
      <feGaussianBlur stdDeviation="2.5" in="shadowOffsetInner" result="shadowGaussian" />
      <feComposite in2="shadowGaussian" operator="atop" in="SourceAlpha" result="shadowComposite" />
      <feColorMatrix type="matrix" values="0 0 0 0 0  0 0 0 0 0  0 0 0 0 0  0 0 0 0.698039215686274 0  " in="shadowComposite" />
    </filter>
    <g id="widget33">
      <path d="M 729 307.036928468354  C 723.2 297.40734059591  714.5 291.629587872444  714.5 282  C 714.5 276.985714285714  717.4 268.5  729 268.5  C 740.6 268.5  743.5 276.985714285714  743.5 282  C 743.5 291.629587872444  734.8 297.40734059591  729 307.036928468354  Z " fill-rule="nonzero" fill="#ffdf25" stroke="none" />
      <path d="M 729 308  C 723 298  714 292  714 282  C 714 276.8  717 268  729 268  C 741 268  744 276.8  744 282  C 744 292  735 298  729 308  Z M 729 306.073856936707  C 734.6 296.81468119182  743 291.259175744887  743 282  C 743 277.171428571429  740.2 269  729 269  C 717.8 269  715 277.171428571429  715 282  C 715 291.259175744887  723.4 296.81468119182  729 306.073856936707  Z " fill-rule="nonzero" fill="#ffffff" stroke="none" />
    </g>
  </defs>
  <g transform="matrix(1 0 0 1 -710 -264 )">
    <use xlink:href="#widget33" filter="url(#filter32)" />
    <use xlink:href="#widget33" />
  </g>
</svg>